<?xml version="1.0" encoding="UTF-8" standalone="no"?>
<svg
   xmlns:dc="http://purl.org/dc/elements/1.1/"
   xmlns:cc="http://creativecommons.org/ns#"
   xmlns:rdf="http://www.w3.org/1999/02/22-rdf-syntax-ns#"
   xmlns:svg="http://www.w3.org/2000/svg"
   xmlns="http://www.w3.org/2000/svg"
   xmlns:xlink="http://www.w3.org/1999/xlink"
   xmlns:sodipodi="http://sodipodi.sourceforge.net/DTD/sodipodi-0.dtd"
   xmlns:inkscape="http://www.inkscape.org/namespaces/inkscape"
   width="389.14883"
   height="312.51633"
   version="1.1"
   id="svg190"
   sodipodi:docname="Octobalena.svg"
   inkscape:version="0.92.4 5da689c313, 2019-01-14">
  <sodipodi:namedview
     pagecolor="#ffffff"
     bordercolor="#666666"
     borderopacity="1"
     objecttolerance="10"
     gridtolerance="10"
     guidetolerance="10"
     inkscape:pageopacity="0"
     inkscape:pageshadow="2"
     inkscape:window-width="1920"
     inkscape:window-height="1080"
     id="namedview192"
     showgrid="false"
     fit-margin-top="0"
     fit-margin-left="0"
     fit-margin-right="0"
     fit-margin-bottom="0"
     inkscape:zoom="0.91485474"
     inkscape:cx="-67.698847"
     inkscape:cy="-86.118592"
     inkscape:window-x="0"
     inkscape:window-y="0"
     inkscape:window-maximized="0"
     inkscape:current-layer="svg190" />
  <metadata
     id="metadata2991">image/svg+xml<rdf:RDF>
  <cc:Work
     rdf:about="">
    <dc:format>image/svg+xml</dc:format>
    <dc:type
       rdf:resource="http://purl.org/dc/dcmitype/StillImage" />
    <dc:title></dc:title>
  </cc:Work>
</rdf:RDF>
</metadata>
  <defs
     id="defs21">
    <clipPath
       id="clipPath2999"
       clipPathUnits="userSpaceOnUse">
      <path
         id="path3001"
         d="M 0,600 H 800 V 0 H 0 Z"
         inkscape:connector-curvature="0" />
    </clipPath>
    <clipPath
       id="clipPath3179"
       clipPathUnits="userSpaceOnUse">
      <path
         id="path3181"
         d="M -6.473043,537.06935 H 126.52696 v -134.101 H -6.473043 Z"
         inkscape:connector-curvature="0" />
    </clipPath>
    <clipPath
       id="clipPath3195"
       clipPathUnits="userSpaceOnUse">
      <path
         id="path3197"
         d="m 4.126957,522.46835 h 19.5 v -19 h -19.5 z"
         inkscape:connector-curvature="0" />
    </clipPath>
    <clipPath
       id="clipPath3211"
       clipPathUnits="userSpaceOnUse">
      <path
         id="path3213"
         d="m -5.773043,487.56935 h 16 v -15 h -16 z"
         inkscape:connector-curvature="0" />
    </clipPath>
    <clipPath
       id="clipPath3227"
       clipPathUnits="userSpaceOnUse">
      <path
         id="path3229"
         d="m -13.373043,481.36835 h 8.3 v -3.89999 h -8.3 z"
         inkscape:connector-curvature="0" />
    </clipPath>
    <clipPath
       id="clipPath3243"
       clipPathUnits="userSpaceOnUse">
      <path
         id="path3245"
         d="m -16.573043,454.06935 h 44.9 v -51 h -44.9 z"
         inkscape:connector-curvature="0" />
    </clipPath>
    <clipPath
       id="clipPath3259"
       clipPathUnits="userSpaceOnUse">
      <path
         id="path3261"
         d="m -5.773043,457.16836 h 63.7 v -48.30001 h -63.7 z"
         inkscape:connector-curvature="0" />
    </clipPath>
    <clipPath
       id="clipPath3299"
       clipPathUnits="userSpaceOnUse">
      <path
         id="path3301"
         d="m 28.326957,411.66836 h 53.4 v -9.275 h -53.4 z"
         inkscape:connector-curvature="0" />
    </clipPath>
    <clipPath
       id="clipPath3323"
       clipPathUnits="userSpaceOnUse">
      <path
         id="path3325"
         d="m 69.426957,412.36835 h 18 v -3.6 h -18 z"
         inkscape:connector-curvature="0" />
    </clipPath>
    <linearGradient
       y2="271.83838"
       y1="121.31887"
       x2="266.16312"
       x1="129.34357"
       id="a"
       gradientTransform="scale(0.99750312,1.0025031)"
       gradientUnits="userSpaceOnUse">
      <stop
         id="stop1010"
         stop-color="#2A506F"
         offset="0%" />
      <stop
         id="stop1012"
         stop-color="#0C9"
         offset="100%" />
    </linearGradient>
    <linearGradient
       y2="100.20451"
       y1="312.49506"
       x2="71.809326"
       x1="318.49023"
       id="b"
       gradientUnits="userSpaceOnUse">
      <stop
         id="stop1015"
         stop-color="#0C9"
         offset="0%" />
      <stop
         id="stop1017"
         stop-color="#2A506F"
         offset="100%" />
    </linearGradient>
    <linearGradient
       y2="341.23993"
       y1="47.349644"
       x2="332.01471"
       x1="64.873688"
       id="c"
       gradientUnits="userSpaceOnUse">
      <stop
         id="stop1020"
         stop-color="#2C5572"
         offset="0%" />
      <stop
         id="stop1022"
         stop-color="#0C9"
         offset="100%" />
    </linearGradient>
    <circle
       r="64.5"
       cy="64.5"
       cx="64.5"
       id="e" />
    <filter
       filterUnits="objectBoundingBox"
       y="-0.59299999"
       x="-0.59299999"
       height="2.1860001"
       width="2.1860001"
       id="d">
      <feOffset
         id="feOffset1026"
         result="shadowOffsetOuter1"
         in="SourceAlpha" />
      <feGaussianBlur
         id="feGaussianBlur1028"
         stdDeviation="25.5"
         result="shadowBlurOuter1"
         in="shadowOffsetOuter1" />
      <feColorMatrix
         id="feColorMatrix1030"
         values="0 0 0 0 0 0 0 0 0 0 0 0 0 0 0 0 0 0 0.1 0"
         in="shadowBlurOuter1" />
    </filter>
    <path
       d="M 0.545,0.63 H 27.86 V 46.222 H 0.545 Z"
       id="f"
       inkscape:connector-curvature="0" />
    <path
       d="M 0.014,0.238 H 53.69 V 18.596 H 0.014 Z"
       id="h"
       inkscape:connector-curvature="0" />
    <circle
       r="8.5"
       cy="274.5"
       cx="329.5"
       id="k" />
    <filter
       filterUnits="objectBoundingBox"
       y="-2.0880001"
       x="-2.0880001"
       height="5.1759996"
       width="5.1759996"
       id="j">
      <feMorphology
         id="feMorphology1036"
         result="shadowSpreadOuter1"
         radius="1"
         operator="dilate"
         in="SourceAlpha" />
      <feOffset
         id="feOffset1038"
         result="shadowOffsetOuter1"
         in="shadowSpreadOuter1" />
      <feGaussianBlur
         id="feGaussianBlur1040"
         stdDeviation="11.5"
         result="shadowBlurOuter1"
         in="shadowOffsetOuter1" />
      <feComposite
         id="feComposite1042"
         result="shadowBlurOuter1"
         operator="out"
         in2="SourceAlpha"
         in="shadowBlurOuter1" />
      <feColorMatrix
         id="feColorMatrix1044"
         values="0 0 0 0 0 0 0 0 0 0 0 0 0 0 0 0 0 0 0.1 0"
         in="shadowBlurOuter1" />
    </filter>
    <circle
       r="10"
       cy="49"
       cx="222"
       id="m" />
    <filter
       filterUnits="objectBoundingBox"
       y="-1.775"
       x="-1.775"
       height="4.5500002"
       width="4.5500002"
       id="l">
      <feMorphology
         id="feMorphology1048"
         result="shadowSpreadOuter1"
         radius="1"
         operator="dilate"
         in="SourceAlpha" />
      <feOffset
         id="feOffset1050"
         result="shadowOffsetOuter1"
         in="shadowSpreadOuter1" />
      <feGaussianBlur
         id="feGaussianBlur1052"
         stdDeviation="11.5"
         result="shadowBlurOuter1"
         in="shadowOffsetOuter1" />
      <feComposite
         id="feComposite1054"
         result="shadowBlurOuter1"
         operator="out"
         in2="SourceAlpha"
         in="shadowBlurOuter1" />
      <feColorMatrix
         id="feColorMatrix1056"
         values="0 0 0 0 0 0 0 0 0 0 0 0 0 0 0 0 0 0 0.1 0"
         in="shadowBlurOuter1" />
    </filter>
    <circle
       r="8.5"
       cy="220.5"
       cx="42.5"
       id="o" />
    <filter
       filterUnits="objectBoundingBox"
       y="-2.0880001"
       x="-2.0880001"
       height="5.1759996"
       width="5.1759996"
       id="n">
      <feMorphology
         id="feMorphology1060"
         result="shadowSpreadOuter1"
         radius="1"
         operator="dilate"
         in="SourceAlpha" />
      <feOffset
         id="feOffset1062"
         result="shadowOffsetOuter1"
         in="shadowSpreadOuter1" />
      <feGaussianBlur
         id="feGaussianBlur1064"
         stdDeviation="11.5"
         result="shadowBlurOuter1"
         in="shadowOffsetOuter1" />
      <feComposite
         id="feComposite1066"
         result="shadowBlurOuter1"
         operator="out"
         in2="SourceAlpha"
         in="shadowBlurOuter1" />
      <feColorMatrix
         id="feColorMatrix1068"
         values="0 0 0 0 0 0 0 0 0 0 0 0 0 0 0 0 0 0 0.1 0"
         in="shadowBlurOuter1" />
    </filter>
    <circle
       r="5.5"
       cy="5.5"
       cx="5.5"
       id="q" />
    <filter
       filterUnits="objectBoundingBox"
       y="-3.2270002"
       x="-3.2270002"
       height="7.4549999"
       width="7.4549999"
       id="p">
      <feMorphology
         id="feMorphology1072"
         result="shadowSpreadOuter1"
         radius="1"
         operator="dilate"
         in="SourceAlpha" />
      <feOffset
         id="feOffset1074"
         result="shadowOffsetOuter1"
         in="shadowSpreadOuter1" />
      <feGaussianBlur
         id="feGaussianBlur1076"
         stdDeviation="11.5"
         result="shadowBlurOuter1"
         in="shadowOffsetOuter1" />
      <feComposite
         id="feComposite1078"
         result="shadowBlurOuter1"
         operator="out"
         in2="SourceAlpha"
         in="shadowBlurOuter1" />
      <feColorMatrix
         id="feColorMatrix1080"
         values="0 0 0 0 0 0 0 0 0 0 0 0 0 0 0 0 0 0 0.1 0"
         in="shadowBlurOuter1" />
    </filter>
    <circle
       r="5.5"
       cy="308.5"
       cx="32.5"
       id="s" />
    <filter
       filterUnits="objectBoundingBox"
       y="-3.2270002"
       x="-3.2270002"
       height="7.4549999"
       width="7.4549999"
       id="r">
      <feMorphology
         id="feMorphology1084"
         result="shadowSpreadOuter1"
         radius="1"
         operator="dilate"
         in="SourceAlpha" />
      <feOffset
         id="feOffset1086"
         result="shadowOffsetOuter1"
         in="shadowSpreadOuter1" />
      <feGaussianBlur
         id="feGaussianBlur1088"
         stdDeviation="11.5"
         result="shadowBlurOuter1"
         in="shadowOffsetOuter1" />
      <feComposite
         id="feComposite1090"
         result="shadowBlurOuter1"
         operator="out"
         in2="SourceAlpha"
         in="shadowBlurOuter1" />
      <feColorMatrix
         id="feColorMatrix1092"
         values="0 0 0 0 0 0 0 0 0 0 0 0 0 0 0 0 0 0 0.1 0"
         in="shadowBlurOuter1" />
    </filter>
    <circle
       r="5.5"
       cy="113.5"
       cx="19.5"
       id="u" />
    <filter
       filterUnits="objectBoundingBox"
       y="-3.2270002"
       x="-3.2270002"
       height="7.4549999"
       width="7.4549999"
       id="t">
      <feMorphology
         id="feMorphology1096"
         result="shadowSpreadOuter1"
         radius="1"
         operator="dilate"
         in="SourceAlpha" />
      <feOffset
         id="feOffset1098"
         result="shadowOffsetOuter1"
         in="shadowSpreadOuter1" />
      <feGaussianBlur
         id="feGaussianBlur1100"
         stdDeviation="11.5"
         result="shadowBlurOuter1"
         in="shadowOffsetOuter1" />
      <feComposite
         id="feComposite1102"
         result="shadowBlurOuter1"
         operator="out"
         in2="SourceAlpha"
         in="shadowBlurOuter1" />
      <feColorMatrix
         id="feColorMatrix1104"
         values="0 0 0 0 0 0 0 0 0 0 0 0 0 0 0 0 0 0 0.1 0"
         in="shadowBlurOuter1" />
    </filter>
    <circle
       r="5.5"
       cy="5.5"
       cx="5.5"
       id="w" />
    <filter
       filterUnits="objectBoundingBox"
       y="-3.2270002"
       x="-3.2270002"
       height="7.4549999"
       width="7.4549999"
       id="v">
      <feMorphology
         id="feMorphology1108"
         result="shadowSpreadOuter1"
         radius="1"
         operator="dilate"
         in="SourceAlpha" />
      <feOffset
         id="feOffset1110"
         result="shadowOffsetOuter1"
         in="shadowSpreadOuter1" />
      <feGaussianBlur
         id="feGaussianBlur1112"
         stdDeviation="11.5"
         result="shadowBlurOuter1"
         in="shadowOffsetOuter1" />
      <feComposite
         id="feComposite1114"
         result="shadowBlurOuter1"
         operator="out"
         in2="SourceAlpha"
         in="shadowBlurOuter1" />
      <feColorMatrix
         id="feColorMatrix1116"
         values="0 0 0 0 0 0 0 0 0 0 0 0 0 0 0 0 0 0 0.1 0"
         in="shadowBlurOuter1" />
    </filter>
    <circle
       r="5.5"
       cy="5.5"
       cx="5.5"
       id="y" />
    <filter
       filterUnits="objectBoundingBox"
       y="-3.2270002"
       x="-3.2270002"
       height="7.4549999"
       width="7.4549999"
       id="x">
      <feMorphology
         id="feMorphology1120"
         result="shadowSpreadOuter1"
         radius="1"
         operator="dilate"
         in="SourceAlpha" />
      <feOffset
         id="feOffset1122"
         result="shadowOffsetOuter1"
         in="shadowSpreadOuter1" />
      <feGaussianBlur
         id="feGaussianBlur1124"
         stdDeviation="11.5"
         result="shadowBlurOuter1"
         in="shadowOffsetOuter1" />
      <feComposite
         id="feComposite1126"
         result="shadowBlurOuter1"
         operator="out"
         in2="SourceAlpha"
         in="shadowBlurOuter1" />
      <feColorMatrix
         id="feColorMatrix1128"
         values="0 0 0 0 0 0 0 0 0 0 0 0 0 0 0 0 0 0 0.1 0"
         in="shadowBlurOuter1" />
    </filter>
    <circle
       r="5.5"
       cy="343.5"
       cx="328.5"
       id="A" />
    <filter
       filterUnits="objectBoundingBox"
       y="-3.2270002"
       x="-3.2270002"
       height="7.4549999"
       width="7.4549999"
       id="z">
      <feMorphology
         id="feMorphology1132"
         result="shadowSpreadOuter1"
         radius="1"
         operator="dilate"
         in="SourceAlpha" />
      <feOffset
         id="feOffset1134"
         result="shadowOffsetOuter1"
         in="shadowSpreadOuter1" />
      <feGaussianBlur
         id="feGaussianBlur1136"
         stdDeviation="11.5"
         result="shadowBlurOuter1"
         in="shadowOffsetOuter1" />
      <feComposite
         id="feComposite1138"
         result="shadowBlurOuter1"
         operator="out"
         in2="SourceAlpha"
         in="shadowBlurOuter1" />
      <feColorMatrix
         id="feColorMatrix1140"
         values="0 0 0 0 0 0 0 0 0 0 0 0 0 0 0 0 0 0 0.1 0"
         in="shadowBlurOuter1" />
    </filter>
    <circle
       r="5.5"
       cy="5.5"
       cx="164.5"
       id="C" />
    <filter
       filterUnits="objectBoundingBox"
       y="-3.2270002"
       x="-3.2270002"
       height="7.4549999"
       width="7.4549999"
       id="B">
      <feMorphology
         id="feMorphology1144"
         result="shadowSpreadOuter1"
         radius="1"
         operator="dilate"
         in="SourceAlpha" />
      <feOffset
         id="feOffset1146"
         result="shadowOffsetOuter1"
         in="shadowSpreadOuter1" />
      <feGaussianBlur
         id="feGaussianBlur1148"
         stdDeviation="11.5"
         result="shadowBlurOuter1"
         in="shadowOffsetOuter1" />
      <feComposite
         id="feComposite1150"
         result="shadowBlurOuter1"
         operator="out"
         in2="SourceAlpha"
         in="shadowBlurOuter1" />
      <feColorMatrix
         id="feColorMatrix1152"
         values="0 0 0 0 0 0 0 0 0 0 0 0 0 0 0 0 0 0 0.1 0"
         in="shadowBlurOuter1" />
    </filter>
    <circle
       r="5.5"
       cy="130.5"
       cx="266.5"
       id="E" />
    <filter
       filterUnits="objectBoundingBox"
       y="-3.2270002"
       x="-3.2270002"
       height="7.4549999"
       width="7.4549999"
       id="D">
      <feMorphology
         id="feMorphology1156"
         result="shadowSpreadOuter1"
         radius="1"
         operator="dilate"
         in="SourceAlpha" />
      <feOffset
         id="feOffset1158"
         result="shadowOffsetOuter1"
         in="shadowSpreadOuter1" />
      <feGaussianBlur
         id="feGaussianBlur1160"
         stdDeviation="11.5"
         result="shadowBlurOuter1"
         in="shadowOffsetOuter1" />
      <feComposite
         id="feComposite1162"
         result="shadowBlurOuter1"
         operator="out"
         in2="SourceAlpha"
         in="shadowBlurOuter1" />
      <feColorMatrix
         id="feColorMatrix1164"
         values="0 0 0 0 0 0 0 0 0 0 0 0 0 0 0 0 0 0 0.1 0"
         in="shadowBlurOuter1" />
    </filter>
    <circle
       r="5.5"
       cy="394.5"
       cx="206.5"
       id="G" />
    <filter
       filterUnits="objectBoundingBox"
       y="-3.2270002"
       x="-3.2270002"
       height="7.4549999"
       width="7.4549999"
       id="F">
      <feMorphology
         id="feMorphology1168"
         result="shadowSpreadOuter1"
         radius="1"
         operator="dilate"
         in="SourceAlpha" />
      <feOffset
         id="feOffset1170"
         result="shadowOffsetOuter1"
         in="shadowSpreadOuter1" />
      <feGaussianBlur
         id="feGaussianBlur1172"
         stdDeviation="11.5"
         result="shadowBlurOuter1"
         in="shadowOffsetOuter1" />
      <feComposite
         id="feComposite1174"
         result="shadowBlurOuter1"
         operator="out"
         in2="SourceAlpha"
         in="shadowBlurOuter1" />
      <feColorMatrix
         id="feColorMatrix1176"
         values="0 0 0 0 0 0 0 0 0 0 0 0 0 0 0 0 0 0 0.1 0"
         in="shadowBlurOuter1" />
    </filter>
    <circle
       r="5.5"
       cy="115.5"
       cx="370.5"
       id="I" />
    <filter
       filterUnits="objectBoundingBox"
       y="-3.2270002"
       x="-3.2270002"
       height="7.4549999"
       width="7.4549999"
       id="H">
      <feMorphology
         id="feMorphology1180"
         result="shadowSpreadOuter1"
         radius="1"
         operator="dilate"
         in="SourceAlpha" />
      <feOffset
         id="feOffset1182"
         result="shadowOffsetOuter1"
         in="shadowSpreadOuter1" />
      <feGaussianBlur
         id="feGaussianBlur1184"
         stdDeviation="11.5"
         result="shadowBlurOuter1"
         in="shadowOffsetOuter1" />
      <feComposite
         id="feComposite1186"
         result="shadowBlurOuter1"
         operator="out"
         in2="SourceAlpha"
         in="shadowBlurOuter1" />
      <feColorMatrix
         id="feColorMatrix1188"
         values="0 0 0 0 0 0 0 0 0 0 0 0 0 0 0 0 0 0 0.1 0"
         in="shadowBlurOuter1" />
    </filter>
  </defs>
  <g
     id="g1852"
     transform="translate(-6.6757152,-43.933456)">
    <g
       transform="matrix(0.97141497,0,0,-0.97141497,148.86459,706.79649)"
       id="g2993">
      <path
         d="M 128.37777,463.61896"
         id="path3660"
         inkscape:connector-curvature="0"
         style="fill:#ffffff" />
      <g
         style="fill:#d4aa00"
         id="g3003">
        <path
           id="path3005"
           d="m 108.12705,572.26866 c 0.7,-0.6 1,-1.5 1,-2.4 0,-0.9 -0.3,-1.8 -1,-2.4 -0.6,-0.7 -1.5,-1 -2.4,-1 -1,0 -1.8,0.3 -2.5,1 -0.6,0.6 -1,1.5 -1,2.4 0,0.9 0.4,1.8 1,2.4 0.7,0.7 1.5,1 2.5,1 0.9,0 1.8,-0.3 2.4,-1 m 1,15.4 c 1,-1 1.6,-2.4 1.6,-3.9 0,-1.5 -0.6,-2.7 -1.6,-3.8 -1,-1 -2.4,-1.6 -3.9,-1.6 -1.5,0 -2.7,0.6 -3.8,1.6 -1,1.1 -1.599996,2.3 -1.599996,3.8 0,1.5 0.599996,2.9 1.599996,3.9 1.1,1 2.3,1.6 3.8,1.6 1.5,0 2.9,-0.6 3.9,-1.6 m 20.7,9.2 c 1,3.6 1.7,5.8 2.1,6.8 -0.3,-0.1 -0.4,-0.4 -0.7,-0.6 -7.3,-7.4 -16.2,-11 -26.7,-11 -2.6,0 -5.099996,0.2 -7.499996,0.6 -1,0.3 -2,0.5 -3,0.8 l -13.1,3 c -1.3,0.5 -2.5,1.1 -3.8,1.6 -1.9,0.9 -3.5,1.8 -4.7,2.7 0.2,-0.7 0.6,-1.6 1.2,-2.8 0.7,-1.7 1.2,-2.8 1.4,-3.3 0.6,-1.6 2.7,-3.6 6.5,-6.1 1.2,-0.9 2.4,-1.6 3.4,-2.4 1.2,-0.5 1.8,-0.9 2.1,-1 0.6,-0.5 1.3,-0.9 1.9,-1.3 l 0.3,-0.2 0.2,-0.1 c 1.7,-1.5 3.2,-3.2 4.3,-5.1 0.3,-0.6 1.2,-2.3 2.7,-5.3 0.6,-1.1 1.2,-2.9 2.1,-5.2 0.9,-2.3 1.599996,-4 2.199996,-5.3 0.6,-0.9 1.2,-1.7 1.8,-2.5 0.6,-0.7 1.5,-1.4 2.4,-2 1.3,-1.1 2.7,-1.9 4.2,-2.5 0.1,0.8 0.3,1.5 0.5,2.4 0.1,0 0.1,0.1 0.1,0.2 0.8,3 2.2,6.4 4.4,10 4.2,6 7.2,10.9 9,14.4 1.6,3 2.9,5.4 3.7,7 1.4,3 2.4,5.4 3,7.2"
           inkscape:connector-curvature="0"
           style="fill:#d4aa00;fill-rule:nonzero" />
      </g>
      <g
         style="fill:#ffcc00"
         id="g3007">
        <path
           id="path3009"
           d="m 110.72715,583.76866 c 0,1.5 -0.6,2.9 -1.6,3.9 -1,1 -2.4,1.6 -3.9,1.6 -1.5,0 -2.7,-0.6 -3.8,-1.6 -1,-1 -1.599998,-2.4 -1.599998,-3.9 0,-1.5 0.599998,-2.7 1.599998,-3.8 1.1,-1 2.3,-1.6 3.8,-1.6 1.5,0 2.9,0.6 3.9,1.6 1,1.1 1.6,2.3 1.6,3.8"
           inkscape:connector-curvature="0"
           style="fill:#ffcc00;fill-rule:nonzero" />
      </g>
      <g
         style="fill:#ffcc00"
         id="g3011">
        <path
           id="path3013"
           d="m 109.12705,569.86876 c 0,0.9 -0.3,1.8 -1,2.4 -0.6,0.7 -1.5,1 -2.4,1 -1,0 -1.8,-0.3 -2.5,-1 -0.6,-0.6 -1,-1.5 -1,-2.4 0,-0.9 0.4,-1.8 1,-2.4 0.7,-0.7 1.5,-1 2.5,-1 0.9,0 1.8,0.3 2.4,1 0.7,0.6 1,1.5 1,2.4"
           inkscape:connector-curvature="0"
           style="fill:#ffcc00;fill-rule:nonzero" />
      </g>
      <g
         style="fill:#ffcc00"
         id="g3015">
        <path
           id="path3017"
           d="m -25.872946,477.16856 c 0.1,0.1 0.2,0.1 0.3,0.1 0.2,0 0.5,0 0.7,-0.1 z m 58,35.9 v -0.9 h -0.1 c -0.2,-0.6 -0.5,-1.4 -1,-2.2 -0.6,-0.9 -1,-1.7 -1.3,-2 -1.1,-1.8 -2.9,-4.5 -5.5,-8.3 -1.6,-2.4 -4.2,-5.1 -7.8,-8.2 l -0.2,-0.2 c -0.2,-0.1 -0.6,-0.3 -0.8,-0.5 -1.7,-1.2 -3.4,-2.3 -5.2,-3.2 -0.8,-0.5 -1.6,-0.9 -2.5,-1.3 -2.5,-1 -4.9,-2 -7.3,-3 -0.6,-0.4 -1.5,-0.8 -2.9,-1.2 -0.1,-0.1 -1,-0.3 -2.6,-0.7 -0.2,-0.1 -0.4,-0.1 -0.6,-0.2 -1.1,-0.3 -1.9,-0.5 -2.7,-0.8 -0.2,-0.6 -0.4,-1.3 -0.4,-2.2 -0.8,0.3 -1.5,0.5 -2,0.5 -1,0.3 -1.8,0.4 -2.3,0.1 h -0.3 c -0.3,0.1 -0.6,0.2 -0.9,0.2 h -0.1 c 0,0.1 -0.1,0.1 -0.1,0.1 h -0.4 c -0.5,0 -1,0.1 -1.4,0.1 h -0.2 c -0.3,0 -0.6,0 -0.9,0.1 -0.9,0.1 -1.7,0.2 -2.5,0.4 h -0.8 c -0.6,0.1 -1.1,0.2 -1.6,0.3 -3.7,0.5 -6.2,0.8 -7.5,1 h -4.7 c -2.6,0.2 -4.6,0.5 -5.9,0.6 h -0.5 v 0.1 h 10.2 c 0.3,0 0.7,0.1 1.2,0.2 0.6,0.1 1.7,0.1 3.5,0.2 3.8,0.3 7.2,0.7 10.4,1.2 1.3,0.3 2.7,0.5 3.9,0.8 1.3,0.2 2.9,0.6 4.8,1.1 0.9,0.3 1.8,0.6 2.8,0.9 h 0.1 0.1 c 0.9,0.3 2.4,0.9 4.5,1.6 2,0.7 3.5,1.3 4.4,1.7 2.1,0.9 4.2,2.1 6.3,3.3 0.7,0.5 1.4,1 2.1,1.4 2.7,1.7 5.1,3.5 6.8,5.1 2.9,2.6 5.9,6 9.3,10.2 0.4,0.5 1,1.3 1.9,2.6 0.2,0.3 0.5,0.7 0.7,1.1 m -92.5,-70.5 c 0.1,0.2 0.1,0.4 0.1,0.6 0,0.9 -0.1,1.4 -0.1,1.4 0,1.5 0.8,2.8 2.3,4 0.9,0.8 2.2,1.5 3.7,2.3 1.3,1 3.6,2.1 7.3,3.2 3.7,1.1 7,1.9 9.9,2.3 3.1,0.5 6.8,1.2 11.4,2 2.3,0.3 4.9,0.7 7.9,1 0.8,0 1.6,0.1 2.5,0.2 2.6,0.2 5.6,0.5 8.9,0.6 h 15.3 l 0.4,0.2 h 5.6 l 0.4,0.1 h 8.8 c 2.8,-0.1 6.1,-0.6 10,-1.5 1.1,-0.3 2.2,-0.5 3.1,-0.8 h -0.6 -1 -10.5 l -1.5,-0.2 h -4 c -3.2,-0.1 -6.1,-0.4 -8.8,-0.8 -0.4,0 -0.8,0 -1.3,-0.1 h -2.4 c -1.8,-0.4 -2.9,-0.7 -3.5,-0.9 -0.1,0 -0.2,0 -0.3,-0.1 -3.3,-0.6 -6.3,-1.3 -9,-2 h -0.1 c -1.4,-0.4 -2.6,-0.9 -3.7,-1.2 -0.8,-0.4 -1.5,-0.7 -2.2,-1 -1.7,-0.9 -3.4,-1.7 -4.8,-2.4 -1.5,-0.8 -2.8,-1.3 -4,-1.9 h 0.2 c -1.3,-0.7 -2.4,-1.2 -3.3,-1.8 -3.7,-2.1 -6.6,-3.8 -8.6,-4.9 -2.6,-0.9 -5.6,-1.7 -8.6,-2.6 -1.5,-0.4 -2.9,-0.7 -4.1,-1.1 -2,-0.2 -3.3,-0.3 -3.8,-0.3 -4.6,0 -8.1,1.3 -10.6,4 -0.3,0.3 -0.6,0.8 -0.9,1.5 0,0 0,0.2 -0.1,0.2 m -4.6,82.3 v 1.2 c 0,1.5 0.6,2.9 1.7,4.1 1.4,1.5 3.7,2.5 6.7,2.8 h 2.7 c 1.5,0 3,-0.3 4.3,-0.8 2.2,-0.6 4.3,-1.7 6.3,-3.4 0.3,-0.2 1.5,-1.6 3.8,-4 0.7,-0.7 1.6,-1.6 2.6,-2.6 0.4,-0.6 1,-1.1 1.5,-1.7 0.2,-0.3 0.4,-0.4 0.6,-0.7 0.4,-0.3 0.8,-0.6 1.2,-0.9 -0.1,-0.1 -0.1,-0.2 -0.1,-0.2 2.2,-2.1 4.3,-3.9 6.5,-5.2 0.8,-0.7 1.8,-1.5 3.2,-2.3 0.7,-0.5 1.5,-1 2.2,-1.4 0.4,-0.1 0.7,-0.1 0.9,-0.2 1.8,-1.1 3.5,-2 5,-2.8 -0.4,0.1 -0.7,0 -1,-0.1 0.5,0 1,-0.1 1.6,-0.1 2.3,-1.1 4.4,-1.9 6.3,-2.3 0.9,-0.3 1.7,-0.6 2.5,-0.7 1.1,-0.4 2.1,-0.5 2.9,-0.4 h 0.5 c 0.2,-0.1 0.5,-0.1 0.7,-0.1 h 2.6 c 0.1,-0.1 0.2,-0.1 0.3,-0.1 h -0.4 c 0,0 -0.1,0 -0.1,-0.1 -0.3,0 -0.5,0 -0.8,-0.1 -0.5,0 -1.1,-0.1 -1.5,-0.1 -0.1,-0.1 -0.3,-0.1 -0.5,-0.1 h -5.6 c -1.5,0.1 -3,0.4 -4.5,0.5 -7,0.8 -12.9,1.6 -17.6,2.5 -4.9,0.8 -9.6,1.9 -14.2,3.1 -6.3,1.8 -10.8,4 -13.4,6.5 -0.3,0.3 -0.5,0.6 -0.8,0.9 -0.4,0.2 -0.6,0.5 -1,0.7 -3.1,2.6 -4.8,5.2 -5,7.6 0,0.2 0,0.3 -0.1,0.4 z m 7.7,45.3 c 0.2,-0.1 0.3,-0.2 0.4,-0.2 0,-0.2 0,-0.3 -0.1,-0.4 -0.1,0.2 -0.2,0.4 -0.3,0.6 m 99.9,-30.1 c -0.1,0.1 -0.2,0.2 -0.3,0.4 -0.9,1.3 -1.9,3.1 -3.2,5.3 -5.5,10.8 -9.2,21.8 -11.1,33 17.2,-2.6 34.6,-2.6 51.8,0 -1.9,-11.2 -5.7,-22.2 -11.2,-33 -1.2,-2.2 -2.2,-4 -3.1,-5.3 -0.1,-0.2 -0.2,-0.3 -0.3,-0.4 -2.6,-4.1 -6.3,-6.3 -10.9,-6.6 -0.1,0.1 -0.1,0.1 -0.2,0 h -0.6 v 0.1 c -4.6,0.3 -8.3,2.5 -10.9,6.5 m -12.5,0.6 c 0.1,0.4 0.3,0.7 0.3,1.1 0.1,0.1 0.2,0.4 0.2,0.9 0.3,-1 0.6,-2 0.9,-2.6 1.2,-2.6 2.8,-5.1 4.6,-7.4 5.1,-6.4 10.9,-9.7 17.4,-10 h 0.4 0.4 c 6.6,0.3 12.3,3.6 17.3,10 1.9,2.3 3.4,4.8 4.6,7.4 0.4,0.6 0.7,1.6 0.9,2.6 0.1,-0.5 0.1,-0.8 0.3,-0.9 0,-0.4 0.1,-0.7 0.2,-1.1 1.1,-5.5 0,-10.8 -3.5,-16 -3.5,-5.3 -8.4,-8.5 -14.7,-9.5 -1.7,-0.4 -3.3,-0.5 -5.1,-0.5 h -0.2 -0.4 -0.2 c -1.8,0 -3.5,0.1 -5.1,0.5 -6.4,1 -11.3,4.2 -14.8,9.5 -3.4,5.2 -4.5,10.5 -3.5,16 m 23.3,100.8 h 0.2 -0.1 z m -25.5,5.3 c 2.7,-3.5 4.6,-7.4 5.4,-11.7 l 0.6,-5.6 v -0.5 l -0.6,-5.7 c -0.8,-4.5 -2.6,-8.5 -5.4,-12.1 -0.8,-1 -1.7,-2 -2.7,-3 -5.1,-5.1 -11.1,-8 -18.1,-8.5 -0.9,0 -1.8,-0.1 -2.6,-0.1 -1.8,0 -3.4,0.1 -5.1,0.4 -3.7,0.6 -7,1.8 -10.2,3.7 -2,1.3 -3.8,2.8 -5.6,4.5 -0.1,0.2 -0.4,0.4 -0.5,0.6 -0.6,0.7 -1.2,1.3 -1.7,2 -2.6,3.1 -4.3,6.6 -5.3,10.4 -0.3,1 -0.5,1.9 -0.6,2.8 l -0.4,5 v 0.5 l 0.5,5.7 c 0.4,2 1,3.8 1.8,5.6 1.5,3.3 3.6,6.3 6.2,9 2.9,2.9 6,5 9.5,6.4 0.7,0.3 1.5,0.6 2.3,0.8 2.8,1 5.8,1.4 9.1,1.4 8.1,0 15,-2.9 20.7,-8.6 0.2,-0.1 0.3,-0.2 0.4,-0.3 0.8,-0.8 1.5,-1.7 2.3,-2.7 m 89.499996,-193.9 c -1.2,0.3 -2.4,0.8 -3.8,1.2 -2.6,0.7 -5.7,1.4 -9.1,2 0,0.1 -0.1,0.1 -0.3,0.1 -0.5,0.2 -1.6,0.5 -3.4,0.9 h -2.399996 c -3.1,0.5 -6.4,0.8 -10.1,0.9 h -4 l -1.5,0.2 h -10.5 -1.1 -0.6 c 1,0.3 2,0.5 3.2,0.8 3.8,0.9 7.2,1.4 9.9,1.5 h 8.8 l 0.5,-0.1 h 5.5 l 0.5,-0.2 h 15.299996 c 3.3,-0.1 6.2,-0.4 8.9,-0.6 1.7,-0.2 3.2,-0.4 4.7,-0.5 2.1,-0.2 4,-0.4 5.7,-0.7 4.5,-0.8 8.3,-1.5 11.4,-2 2.9,-0.4 6.2,-1.2 9.9,-2.3 3.6,-1.1 6,-2.2 7.2,-3.2 1.6,-0.8 2.9,-1.5 3.8,-2.3 1.5,-1.2 2.2,-2.5 2.2,-4 0,0 0,-0.5 -0.1,-1.4 0.1,-0.2 0.1,-0.4 0.1,-0.6 0,0 0,-0.2 -0.1,-0.2 -0.3,-0.7 -0.5,-1.2 -0.9,-1.5 -2.5,-2.7 -6,-4 -10.5,-4 -0.5,0 -1.8,0.1 -3.9,0.3 -1.2,0.4 -2.6,0.7 -4.1,1.1 -3,0.9 -5.9,1.7 -8.5,2.6 -2.1,1.1 -5,2.8 -8.6,4.9 -0.9,0.6 -2,1.1 -3.4,1.8 h 0.3 c -0.6,0.3 -1.3,0.6 -1.9,0.9 -2,1 -4.4,2.1 -7,3.4 -0.6,0.3 -1.3,0.6 -2.1,1 m 15.2,24.3 c 0.3,0.1 0.5,0.1 0.8,0.1 0.1,0 0.2,0 0.2,-0.1 z m -40.599996,-13.8 c 2.1,-0.7 3.6,-1.3 4.5,-1.6 h 0.2 c 1,-0.3 1.8,-0.6 2.7,-0.9 1.999996,-0.5 3.499996,-0.9 4.899996,-1.1 1.9,-0.4 4,-0.8 6.2,-1.1 2.5,-0.3 5.2,-0.7 8.1,-0.9 1.7,-0.1 2.8,-0.1 3.5,-0.2 0.4,-0.1 0.8,-0.2 1.2,-0.2 h 10.1 v -0.1 h -0.5 c 14,24.2 12,23.9 9.3,23.7 h -4.7 c -1.4,-0.3 -4.5,-0.7 -9.2,-1.3 h -0.7 c -0.4,-0.1 -0.7,-0.2 -1.1,-0.2 -1.3,-0.2 -2.6,-0.3 -4.2,-0.4 -0.1,0 -0.1,0 -0.2,-0.1 h -0.1 c -0.3,0 -0.5,-0.1 -0.9,-0.2 h -0.2 c -0.3,0.2 -0.7,0.2 -1.2,0.2 -0.3,-0.1 -0.7,-0.2 -1.2,-0.3 -0.5,0 -1.1,-0.2 -1.9,-0.5 -0.1,0.8 -0.2,1.4 -0.3,1.9 -1.3,0.5 -2.4,0.9 -3.2,1.2 -0.7,0.3 -1.5,0.5 -2.2,0.8 -3.6,1.2 -7.2,2.7 -10.8,4.2 -2.699996,1.3 -5.299996,2.8 -7.699996,4.5 -0.3,0.2 -0.6,0.4 -0.9,0.5 l -0.1,0.2 c -3.6,3.1 -6.2,5.8 -7.8,8.2 -2.6,3.8 -4.5,6.5 -5.5,8.3 -0.3,0.3 -0.7,1.1 -1.3,2 -0.5,0.8 -0.8,1.6 -1.1,2.2 0,0.3 -0.1,0.6 -0.1,0.9 0.3,-0.4 0.5,-0.8 0.8,-1.1 0.8,-1.3 1.5,-2.1 1.9,-2.6 3.3,-4.2 6.3,-7.6 9.2,-10.2 1.8,-1.6 4.1,-3.4 6.9,-5.1 2.7,-1.9 5.599996,-3.4 8.299996,-4.7 1,-0.4 2.5,-1 4.5,-1.7 m 63.9,42.5 c 1.1,-1.2 1.6,-2.6 1.6,-4.1 v -1.2 -0.1 c 0,-0.1 -0.1,-0.2 -0.1,-0.4 -0.1,-2.4 -1.8,-5 -5,-7.6 -0.3,-0.2 -0.6,-0.5 -1,-0.7 -0.2,-0.3 -0.5,-0.6 -0.7,-0.9 -2.6,-2.5 -7.1,-4.7 -13.4,-6.5 -4.6,-1.2 -9.3,-2.3 -14.2,-3.1 -4.7,-0.9 -10.7,-1.7 -17.7,-2.5 -1.1,-0.1 -2.4,-0.3 -3.5,-0.4 -0.4,0 -0.6,0 -1,-0.1 h -5.6 c -0.6,0.1 -1.3,0.1 -2,0.2 -0.4,0.1 -0.9,0.2 -1.2,0.2 0.1,0 0.2,0 0.3,0.1 h 0.5 c 0.3,-0.1 0.5,-0.1 0.5,-0.2 h 0.6 c 0.4,0.1 1.2,0.1 2,0.1 -0.1,0 -0.1,0 -0.1,-0.1 2,0.2 3.6,0.4 5.1,0.7 h 0.2 0.1 c 2.4,0.1 5.9,1.2 10.6,3.6 4.3,2 7.5,4 9.8,5.9 2.3,1.9 4.4,3.8 6.2,5.7 2.1,2.4 3.5,4.3 3.9,5.7 0.1,0.2 0.1,0.2 0.2,0.3 h 0.1 c 0.2,0.3 0.3,0.5 0.7,0.8 h 0.1 v 0.1 c 1.7,1.9 2.7,2.9 3,3.1 1.9,1.7 4,2.8 6.3,3.4 1.3,0.5 2.7,0.8 4.2,0.8 h 2.8 c 3,-0.3 5.2,-1.3 6.7,-2.8 m -6.5,39.8 c 0.2,0 0.3,0.1 0.4,0.2 0,-0.2 -0.1,-0.4 -0.3,-0.6 0,0.1 0,0.2 -0.1,0.4 m -34.2,70.8 c 0.7,-1.8 1.3,-3.6 1.7,-5.6 l 0.6,-5.7 v -0.5 l -0.4,-5 c -0.2,-0.9 -0.3,-1.8 -0.6,-2.8 -1,-3.8 -2.7,-7.3 -5.3,-10.4 -0.5,-0.7 -1.1,-1.3 -1.7,-2 -0.2,-0.2 -0.4,-0.4 -0.6,-0.6 -1.7,-1.7 -3.6,-3.2 -5.6,-4.5 -3.1,-1.9 -6.5,-3.1 -10.1,-3.7 -1.7,-0.3 -3.3,-0.4 -5.1,-0.4 -0.8,0 -1.7,0.1 -2.6,0.1 -7.099996,0.5 -13.099996,3.4 -18.199996,8.5 -0.9,1 -1.9,2 -2.6,3 -2.8,3.6 -4.7,7.6 -5.4,12.1 l -0.6,5.7 v 0.5 l 0.6,5.6 c 0.8,4.3 2.6,8.2 5.4,11.7 0.7,1 1.5,1.9 2.3,2.7 l 0.3,0.3 c 5.7,5.7 12.6,8.6 20.799996,8.6 3.2,0 6.2,-0.4 9.1,-1.4 0.7,-0.2 1.6,-0.5 2.3,-0.8 3.4,-1.4 6.5,-3.5 9.4,-6.4 2.7,-2.7 4.8,-5.7 6.3,-9 m 0.8,-37.7 c 0.3,0.2 0.4,0.5 0.7,0.6 6.9,7.3 10.3,16 10.3,26 0,10.4 -3.6,19.3 -11,26.6 -7.1,7.1 -15.6,10.7 -25.6,11 h -1.1 -0.1 c -8.699996,0 -16.899996,-2.3 -24.499996,-6.8 -7,-4.1 -12.8,-8.2 -17.4,-12.2 -5.8,-5 -11.5,-5 -17.3,0 -4.5,4 -10.3,8.1 -17.3,12.2 -7.7,4.5 -15.8,6.8 -24.5,6.8 h -0.2 -1.1 c -9.9,-0.3 -18.5,-3.9 -25.5,-11 -7.4,-7.3 -11.1,-16.2 -11.1,-26.6 0,-10 3.5,-18.7 10.4,-26 0.2,-0.1 0.4,-0.4 0.7,-0.6 7.3,-7.4 16.2,-11 26.6,-11 2.7,0 5.2,0.2 7.6,0.6 1,0.3 2,0.5 3,0.8 l 13.1,3 c 1.2,0.5 2.5,1.1 3.7,1.6 1.9,0.9 3.5,1.8 4.8,2.7 -0.3,-0.7 -0.7,-1.6 -1.2,-2.8 -0.7,-1.7 -1.2,-2.8 -1.4,-3.3 -0.6,-1.6 -2.7,-3.6 -6.5,-6.1 -1.2,-0.9 -2.4,-1.6 -3.4,-2.4 -1.2,-0.5 -1.9,-0.9 -2.2,-1 -0.6,-0.5 -1.2,-0.9 -1.8,-1.3 l -0.3,-0.2 c -0.1,0 -0.2,-0.1 -0.2,-0.1 -1.8,-1.5 -3.2,-3.2 -4.3,-5.1 -0.4,-0.6 -1.2,-2.3 -2.7,-5.3 -0.6,-1.1 -1.3,-2.9 -2.2,-5.2 -0.8,-2.3 -1.6,-4 -2.2,-5.3 -0.5,-0.9 -1.1,-1.7 -1.8,-2.5 -0.6,-0.7 -1.4,-1.4 -2.3,-2 -1.4,-1.1 -2.8,-1.9 -4.2,-2.5 -0.3,-0.1 -0.7,-0.3 -1.1,-0.5 -9.4,-3.2 -17.2,-1.9 -23.7,4.2 -0.5,0.4 -1.1,0.9 -1.6,1.4 -2.7,2.7 -6.7,8.5 -12.1,17.5 -5.5,9.2 -10.7,16.2 -15.6,21.2 -7,7.3 -15.5,13.2 -25.5,17.5 -7.6,2.1 -15.5,2.1 -23.700004,0 -13.7,-3.2 -24.3,-10 -31.8,-20.3 -4.5,-6 -7.5,-12.4 -8.8,-18.8 -0.8,-3.2 -1.2,-6.7 -1.2,-10.3 v -6.3 c 0.1,-1 0.9,-3.8 2.3,-8.5 0.6,-2.3 2.4,-5.1 5.2,-8.5 2.5,-2.9 4.9,-4.7 7.1,-5.6 -0.5,0.7 -0.9,1.5 -1.2,2.3 -0.5,1 -0.9,2.1 -1.2,3.2 -0.1,0.4 -0.2,0.6 -0.2,1 -0.4,0.4 -0.5,1.1 -0.6,2 -0.6,2.1 -1.1,3.7 -1.5,4.8 -0.3,0.7 -0.4,1.3 -0.6,2.1 -0.8,3 -1.2,6.2 -1.2,9.7 0,2.7 0.8,6 2.2,10.1 1.5,4.3 3.1,7.3 4.8,9.2 2.7,2.9 4.2,4.5 4.4,4.7 2,1.9 4.1,3.4 6.4,4.6 5.9,3.1 9.9,4.8 12.2,5.1 1.7,0.4 3.3,0.6 4.9,0.6 4.200004,0 8.300004,-0.5 12.100004,-1.5 12.3,-3.8 21.7,-12.4 28.2,-25.6 1.7,-3.7 4.8,-8.4 9.2,-14.2 1.3,-1.2 3.3,-3.6 5.9,-7 1.5,-1.9 3.5,-4 5.8,-6 3.2,-2.8 8.1,-5.9 14.8,-9.2 6.6,-3.3 11.5,-5.1 14.5,-5.5 2.9,-0.4 5.4,-0.6 7.5,-0.5 2,0 3,-0.1 3,-0.4 -2.6,-0.6 -6,-0.9 -10,-0.9 -6.3,0 -11.4,0.7 -15.2,1.9 -2.2,0.8 -4.7,2.1 -7.6,4 -9.2,6.6 -18.7,8.5 -28.6,5.6 -1.9,-0.7 -3.6,-1.7 -5.2,-2.9 -3.3,-2.3 -5.9,-5.7 -7.6,-9.8 -0.2,-0.4 -0.3,-0.9 -0.5,-1.3 0,-0.1 -0.1,-0.2 -0.2,-0.4 h 0.1 c -1.1,-4.1 -1.6,-8.7 -1.3,-13.8 0.1,-5.4 1.5,-9.7 4,-13.1 2.5,-3.4 4.2,-5.7 5.3,-6.9 3.2,-3.1 6.6,-5.3 10.3,-6.5 2.9,-0.9 5.5,-1.8 7.8,-2.3 -7.6,-1.5 -13.7,-5.2 -18.3,-11.2 -4,-5.2 -6,-10.4 -6,-15.5 0,-2 0.2,-3.7 0.5,-5.2 0.4,-1.5 1,-3.3 1.9,-5.2 0.8,-1.8 1.8,-3.4 2.9,-4.8 2.8,-5 7.2,-8.2 12.8,-9.4 1.6,-0.3 3.4,-0.6 5.2,-0.6 h 4.3 c 3.1,0.5 6.3,1.2 9.7,2.3 1.1,0.3 2.1,0.6 3.1,1 -3.6,-3.8 -6.1,-7.2 -7.7,-10 -6.6,-9.8 -9.2,-19.6 -8.1,-29.3 0.5,-4.8 2,-9.5 4.5,-14.3 6.2,-10.6 16.4,-16.8 30.8,-18.8 4.9,-0.3 9.6,0 14,0.9 8.5,2 15.5,6.3 20.9,13.1 1.8,2.2 3.6,4.9 5.1,7.7 0.2,0.5 0.5,1 0.7,1.5 l 1.3,2.9 c -1.4,-2.2 -2.3,-3.5 -2.7,-4 -0.1,0 -0.1,0 -0.2,-0.1 -3.5,-3.4 -5.5,-5.3 -6.1,-5.7 -0.4,-0.3 -0.8,-0.6 -1.1,-0.8 -0.8,-0.4 -1.5,-0.8 -2.3,-1.3 -6.5,-3.5 -13.6,-5.2 -21.5,-5.2 -1.3,0 -2.5,0 -3.6,0.2 -0.4,0 -0.9,0 -1.3,0.1 -14.8,2.7 -21.9,10.5 -21.1,23.3 v 0.5 c 0.2,6.8 2.8,13.4 7.8,19.8 0.7,0.9 1.4,1.7 2.1,2.4 0.1,0.1 0.1,0.2 0.3,0.3 5.6,5.5 12.9,10.2 22.2,14.3 1.7,1 3.6,2.1 5.5,3.1 0.2,0.1 0.5,0.4 0.8,0.5 1.2,0.6 2.3,1.2 3.6,1.8 3.2,1.6 6.6,3.1 10.2,4.5 3.8,1.6 7.9,3.8 12,6.9 0,0.1 0.1,0.2 0.2,0.2 1.3,1.3 3.3,3.4 6,6.4 3.2,3.6 6,7.6 8.4,12 2,3.6 3.9,7.9 5.7,12.7 0.6,2.2 1.2,4 1.7,5.7 0.1,0.3 0.3,0.7 0.4,1 v 2.3 c 0.1,-0.3 0.2,-0.7 0.4,-1.1 0.2,-0.4 0.2,-0.8 0.4,-1.2 0.2,-0.3 0.3,-0.7 0.3,-1 0.5,-1.7 1.1,-3.5 1.8,-5.7 1.7,-4.8 3.7,-9.1 5.7,-12.7 2.4,-4.4 5.1,-8.4 8.4,-12 2.6,-3 4.6,-5.1 6,-6.4 0,0 0.1,-0.1 0.1,-0.2 4.2,-3.1 8.3,-5.3 12.1,-6.9 3.6,-1.4 7,-2.9 10.2,-4.5 1.199996,-0.6 2.399996,-1.2 3.599996,-1.8 0.2,-0.1 0.6,-0.4 0.8,-0.5 1.9,-1 3.7,-2.1 5.4,-3.1 9.3,-4.1 16.7,-8.8 22.3,-14.3 0.1,-0.1 0.2,-0.2 0.3,-0.3 0.7,-0.7 1.3,-1.5 2.1,-2.4 5,-6.4 7.6,-13 7.7,-19.8 v -0.5 c 0.9,-12.8 -6.2,-20.6 -21.1,-23.3 -0.4,-0.1 -0.8,-0.1 -1.2,-0.1 -1.2,-0.2 -2.3,-0.2 -3.6,-0.2 -7.9,0 -15.1,1.7 -21.599996,5.2 -0.4,0.3 -0.8,0.5 -1.2,0.8 -0.8,0.4 -1.5,0.9 -2.2,1.3 -0.5,0.4 -2.3,2.1 -5.6,5.2 l -0.5,0.5 c 0,0.1 -0.1,0.1 -0.1,0.1 -0.4,0.5 -1.4,1.8 -2.8,4 l 1.4,-2.9 c 0.3,-0.7 0.6,-1.3 1,-2 1.5,-2.9 3.4,-5.5 5.3,-7.8 5.3,-6.4 12.099996,-10.6 20.299996,-12.5 4.5,-0.9 9.2,-1.2 14,-0.9 14.4,2 24.7,8.2 30.9,18.8 2.4,4.8 3.9,9.5 4.5,14.3 1.1,9.7 -1.6,19.5 -8.1,29.3 -1.6,2.8 -4.1,6.2 -7.7,10 0.9,-0.4 1.9,-0.7 3.1,-1 3.3,-1.1 6.6,-1.8 9.6,-2.3 h 4.4 c 1.8,0 3.6,0.3 5.2,0.6 5.6,1.2 9.9,4.4 12.8,9.4 1.1,1.4 2.1,3 2.9,4.8 0.9,1.9 1.5,3.7 1.8,5.2 0.4,1.5 0.5,3.2 0.5,5.2 0,5.1 -2,10.3 -6,15.5 -4.6,6 -10.6,9.7 -18.2,11.2 2.3,0.5 4.8,1.4 7.7,2.3 3.8,1.2 7.2,3.4 10.4,6.5 1,1.2 2.8,3.5 5.2,6.9 2.5,3.4 3.9,7.7 4.1,13.1 0.2,5.1 -0.2,9.7 -1.3,13.8 0,0.2 -0.1,0.3 -0.1,0.4 -0.2,0.4 -0.3,0.9 -0.5,1.3 -1.8,4.1 -4.3,7.5 -7.7,9.8 -1.5,1.2 -3.2,2.2 -5.2,2.9 -9.9,2.9 -19.4,1 -28.5,-5.6 -3,-1.9 -5.5,-3.2 -7.6,-4 -3.9,-1.2 -8.9,-1.9 -15.2,-1.9 -4.1,0 -7.4,0.3 -10,0.9 0,0.3 1,0.4 3,0.4 2,-0.1 4.5,0.1 7.5,0.5 2.9,0.4 7.8,2.2 14.4,5.5 6.8,3.3 11.7,6.4 14.9,9.2 2.3,2 4.2,4.1 5.8,6 2.6,3.4 4.6,5.8 5.9,7 4.4,5.8 7.4,10.5 9.2,14.2 6.5,13.2 15.9,21.8 28.1,25.6 3.9,1 8,1.5 12.2,1.5 1.5,0 3.2,-0.2 4.8,-0.6 2.4,-0.3 6.4,-2 12.2,-5.1 2.3,-1.2 4.4,-2.7 6.4,-4.6 0.3,-0.2 1.8,-1.8 4.4,-4.7 1.7,-1.9 3.4,-4.9 4.9,-9.2 1.4,-4.1 2.1,-7.4 2.1,-10.1 0,-3.5 -0.4,-6.7 -1.1,-9.7 -0.2,-0.8 -0.4,-1.4 -0.7,-2.1 -0.3,-1.1 -0.8,-2.7 -1.5,-4.8 0,-0.9 -0.1,-1.6 -0.5,-2 -0.1,-0.4 -0.1,-0.6 -0.2,-1 -0.4,-1.1 -0.8,-2.2 -1.2,-3.2 -0.3,-0.8 -0.8,-1.6 -1.2,-2.3 2.1,0.9 4.5,2.7 7,5.6 2.9,3.4 4.6,6.2 5.3,8.5 1.3,4.7 2.1,7.5 2.2,8.5 0.1,0.3 0.1,2.4 0.1,6.3 0,3.6 -0.4,7.1 -1.2,10.3 -1.4,6.4 -4.4,12.8 -8.8,18.8 -7.6,10.3 -18.1,17.1 -31.8,20.3 -8.3,2.1 -16.2,2.1 -23.7,0 -10,-4.3 -18.6,-10.2 -25.6,-17.5 -4.9,-5 -10,-12 -15.5,-21.2 -5.5,-9 -9.5,-14.8 -12.1,-17.5 -0.5,-0.5 -1.1,-1 -1.6,-1.4 -6.5,-6.1 -14.4,-7.4 -23.8,-4.2 -0.3,0.2 -0.7,0.4 -1,0.5 -1.5,0.6 -2.9,1.4 -4.2,2.5 -0.9,0.6 -1.8,1.3 -2.4,2 -0.6,0.8 -1.2,1.6 -1.8,2.5 -0.6,1.3 -1.299996,3 -2.199996,5.3 -0.9,2.3 -1.5,4.1 -2.1,5.2 -1.5,3 -2.4,4.7 -2.7,5.3 -1.1,1.9 -2.6,3.6 -4.3,5.1 l -0.2,0.1 -0.3,0.2 c -0.6,0.4 -1.3,0.8 -1.9,1.3 -0.3,0.1 -0.9,0.5 -2.1,1 -1,0.8 -2.2,1.5 -3.4,2.4 -3.8,2.5 -5.9,4.5 -6.5,6.1 -0.2,0.5 -0.7,1.6 -1.4,3.3 -0.6,1.2 -1,2.1 -1.2,2.8 1.2,-0.9 2.8,-1.8 4.7,-2.7 1.3,-0.5 2.5,-1.1 3.8,-1.6 l 13.1,-3 c 1,-0.3 2,-0.5 3,-0.8 2.4,-0.4 4.899996,-0.6 7.499996,-0.6 10.5,0 19.4,3.6 26.7,11"
           inkscape:connector-curvature="0"
           style="fill:#ffcc00;fill-rule:nonzero" />
      </g>
      <g
         id="g3019">
        <path
           id="path3021"
           d="m 108.92686,624.66856 c 1.3,-0.7 2.5,-1.5 3.6,-2.7 2.5,-2.5 3.8,-5.6 3.8,-9.2 0,-3.6 -1.3,-6.7 -3.8,-9.2 -0.5,-0.5 -1,-0.9 -1.5,-1.4 -2.3,-1.6 -4.9,-2.5 -7.8,-2.5 -1.5,0 -2.9,0.2 -4.200001,0.6 -0.4,0.2 -0.7,0.3 -1,0.4 h 0.1 c 1,0 1.900001,0.3 2.600001,0.7 0.2,0.1 0.4,0.2 0.5,0.3 0.2,0.1 0.3,0.2 0.4,0.3 1,1 1.5,2.2 1.5,3.8 0,0.9 -0.2,1.7 -0.7,2.6 -0.4,0.8 -0.9,1.3 -1.6,1.7 -0.7,0.4 -1.600001,0.7 -2.700001,0.7 -1.7,0 -3,-0.6 -4,-2 -0.6,-1 -1,-2 -1,-3 0,-0.3 0,-0.5 0.1,-0.8 0,-0.3 0.1,-0.5 0.2,-0.8 -2.3,2.4 -3.3,5.3 -3.3,8.6 v 1.7 c 0.4,2.9 1.7,5.4 3.9,7.5 0.6,0.7 1.2,1.3 1.9,1.7 h 0.1 c 2.1,1.5 4.500001,2.3 7.200001,2.3 1.5,0 2.9,-0.3 4.3,-0.7 0.3,-0.1 0.6,-0.3 1,-0.5 0.1,0 0.2,-0.1 0.4,-0.1 m 23.2,10.5 c -0.4,2 -1,3.8 -1.7,5.6 -1.5,3.3 -3.6,6.3 -6.3,9 -2.9,2.9 -6,5 -9.4,6.4 -0.7,0.3 -1.6,0.6 -2.3,0.8 -2.9,1 -5.9,1.4 -9.1,1.4 -8.200001,0 -15.100001,-2.9 -20.800001,-8.6 l -0.3,-0.3 c -0.8,-0.8 -1.6,-1.7 -2.3,-2.7 -2.8,-3.5 -4.6,-7.4 -5.4,-11.7 l -0.6,-5.6 v -0.5 l 0.6,-5.7 c 0.7,-4.5 2.6,-8.5 5.4,-12.1 0.7,-1 1.7,-2 2.6,-3 5.1,-5.1 11.1,-8 18.200001,-8.5 0.9,0 1.8,-0.1 2.6,-0.1 1.8,0 3.4,0.1 5.1,0.4 3.6,0.6 7,1.8 10.1,3.7 2,1.3 3.9,2.8 5.6,4.5 0.2,0.2 0.4,0.4 0.6,0.6 0.6,0.7 1.2,1.3 1.7,2 2.6,3.1 4.3,6.6 5.3,10.4 0.3,1 0.4,1.9 0.6,2.8 l 0.4,5 v 0.5 z"
           inkscape:connector-curvature="0"
           style="fill:#ffffff;fill-rule:nonzero" />
      </g>
      <g
         id="g3023">
        <path
           id="path3025"
           d="m 112.52696,621.96885 c -1.1,1.2 -2.3,2 -3.6,2.7 -0.2,0 -0.3,0.10001 -0.4,0.10001 -0.4,0.2 -0.7,0.39999 -1,0.5 -1.4,0.39999 -2.8,0.7 -4.3,0.7 -2.7,0 -5.100003,-0.8 -7.200003,-2.3 h -0.1 c -0.7,-0.4 -1.3,-1 -1.9,-1.7 -2.2,-2.1 -3.5,-4.6 -3.9,-7.5 v -1.7 c 0,-3.3 1,-6.20001 3.3,-8.60001 -0.1,0.3 -0.2,0.5 -0.2,0.8 -0.1,0.3 -0.1,0.5 -0.1,0.8 0,1 0.4,2 1,3 1,1.4 2.3,2 4,2 1.1,0 2.000003,-0.3 2.700003,-0.7 0.7,-0.4 1.2,-0.9 1.6,-1.7 0.5,-0.9 0.7,-1.7 0.7,-2.6 0,-1.6 -0.5,-2.8 -1.5,-3.8 -0.1,-0.1 -0.2,-0.2 -0.4,-0.3 -0.1,-0.1 -0.3,-0.2 -0.5,-0.3 -0.7,-0.4 -1.600003,-0.7 -2.600003,-0.7 h -0.1 c 0.3,-0.1 0.6,-0.2 1,-0.4 1.300003,-0.4 2.700003,-0.6 4.200003,-0.6 2.9,0 5.5,0.9 7.8,2.5 0.5,0.5 1,0.9 1.5,1.4 2.5,2.5 3.8,5.6 3.8,9.2 0,3.6 -1.3,6.7 -3.8,9.2"
           inkscape:connector-curvature="0"
           style="fill:#000000;fill-rule:nonzero" />
      </g>
      <g
         id="g3027">
        <path
           id="path3029"
           d="m 165.02696,570.16856 c -0.1,-0.1 -0.2,-0.2 -0.4,-0.2 0.1,-0.2 0.1,-0.3 0.1,-0.4 0.2,0.2 0.3,0.4 0.3,0.6"
           inkscape:connector-curvature="0"
           style="fill:#678c5d;fill-rule:nonzero" />
      </g>
      <g
         style="fill:#d4aa00"
         id="g3031">
        <path
           id="path3033"
           d="m 172.72715,526.06895 c 0,1.5 -0.5,2.9 -1.6,4.1 -1.5,1.5 -3.7,2.5 -6.7,2.8 h -2.8 c -1.5,0 -2.9,-0.3 -4.2,-0.8 -2.3,-0.6 -4.4,-1.7 -6.3,-3.4 -0.3,-0.2 -1.3,-1.2 -3,-3.1 v -0.1 h -0.1 c -0.4,-0.3 -0.5,-0.5 -0.7,-0.8 h -0.1 c -0.1,-0.1 -0.1,-0.1 -0.2,-0.3 -0.4,-1.4 -1.8,-3.3 -3.9,-5.7 -1.8,-1.9 -3.9,-3.8 -6.2,-5.7 -2.3,-1.9 -5.5,-3.9 -9.8,-5.9 -4.7,-2.4 -8.2,-3.5 -10.6,-3.6 h -0.1 -0.2 c -1.5,-0.3 -3.1,-0.5 -5.1,-0.7 0,0.1 0,0.1 0.1,0.1 -0.8,0 -1.6,0 -2,-0.1 h -0.6 c 0,0.1 -0.2,0.1 -0.5,0.2 h -0.5 c -0.1,-0.1 -0.2,-0.1 -0.3,-0.1 0.3,0 0.8,-0.1 1.2,-0.2 0.7,-0.1 1.4,-0.1 2,-0.2 h 5.6 c 0.4,0.1 0.6,0.1 1,0.1 1.1,0.1 2.4,0.3 3.5,0.4 7,0.8 13,1.6 17.7,2.5 4.9,0.8 9.6,1.9 14.2,3.1 6.3,1.8 10.8,4 13.4,6.5 0.2,0.3 0.5,0.6 0.7,0.9 0.4,0.2 0.7,0.5 1,0.7 3.2,2.6 4.9,5.2 5,7.6 0,0.2 0.1,0.3 0.1,0.4 v 0.1 z"
           inkscape:connector-curvature="0"
           style="fill:#d4aa00;fill-rule:nonzero" />
      </g>
      <g
         style="fill:#d4aa00"
         id="g3035">
        <path
           id="path3037"
           d="m 111.72715,486.06895 c -0.9,0.3 -2.4,0.9 -4.5,1.6 -2,0.7 -3.5,1.3 -4.5,1.7 -2.7,1.3 -5.599998,2.8 -8.299998,4.7 -2.8,1.7 -5.1,3.5 -6.9,5.1 -2.9,2.6 -5.9,6 -9.2,10.2 -0.4,0.5 -1.1,1.3 -1.9,2.6 -0.3,0.3 -0.5,0.7 -0.8,1.1 0,-0.3 0.1,-0.6 0.1,-0.9 0.3,-0.6 0.6,-1.4 1.1,-2.2 0.6,-0.9 1,-1.7 1.3,-2 1,-1.8 2.9,-4.5 5.5,-8.3 1.6,-2.4 4.2,-5.1 7.8,-8.2 l 0.1,-0.2 c 0.3,-0.1 0.6,-0.3 0.9,-0.5 2.4,-1.7 5,-3.2 7.699998,-4.5 3.6,-1.5 7.2,-3 10.8,-4.2 0.7,-0.3 1.5,-0.5 2.2,-0.8 0.8,-0.3 1.9,-0.7 3.2,-1.2 0.1,-0.5 0.2,-1.1 0.3,-1.9 0.8,0.3 1.4,0.5 1.9,0.5 0.5,0.1 0.9,0.2 1.2,0.3 0.5,0 0.9,0 1.2,-0.2 h 0.2 c 0.4,0.1 0.6,0.2 0.9,0.2 h 0.1 c 0.1,0.1 0.1,0.1 0.2,0.1 1.6,0.1 2.9,0.2 4.2,0.4 0.4,0 0.7,0.1 1.1,0.2 h 0.7 c 4.7,0.6 7.8,1 9.2,1.3 h 4.7 c 2.7,0.2 4.7,0.5 5.9,0.6 h 0.5 v 0.1 h -10.1 c -0.4,0 -0.8,0.1 -1.2,0.2 -0.7,0.1 -1.8,0.1 -3.5,0.2 -2.9,0.2 -5.6,0.6 -8.1,0.9 -2.2,0.3 -4.3,0.7 -6.2,1.1 -1.4,0.2 -2.9,0.6 -4.9,1.1 -0.9,0.3 -1.7,0.6 -2.7,0.9 z"
           inkscape:connector-curvature="0"
           style="fill:#d4aa00;fill-rule:nonzero" />
      </g>
      <g
         id="g3039">
        <path
           id="path3041"
           d="m 133.42686,477.26866 c -0.3,0 -0.5,0 -0.8,-0.1 h 1 c 0,0.1 -0.1,0.1 -0.2,0.1"
           inkscape:connector-curvature="0"
           style="fill:#678c5d;fill-rule:nonzero" />
      </g>
      <g
         style="fill:#d4aa00"
         id="g3043">
        <path
           id="path3045"
           d="m 113.62705,454.06895 c 1.4,-0.4 2.6,-0.9 3.8,-1.2 0.8,-0.4 1.5,-0.7 2.1,-1 2.6,-1.3 5,-2.4 7,-3.4 0.6,-0.3 1.3,-0.6 1.9,-0.9 h -0.3 c 1.4,-0.7 2.5,-1.2 3.4,-1.8 3.6,-2.1 6.5,-3.8 8.6,-4.9 2.6,-0.9 5.5,-1.7 8.5,-2.6 1.5,-0.4 2.9,-0.7 4.1,-1.1 2.1,-0.2 3.4,-0.3 3.9,-0.3 4.5,0 8,1.3 10.5,4 0.4,0.3 0.6,0.8 0.9,1.5 0.1,0 0.1,0.2 0.1,0.2 0,0.2 0,0.4 -0.1,0.6 0.1,0.9 0.1,1.4 0.1,1.4 0,1.5 -0.7,2.8 -2.2,4 -0.9,0.8 -2.2,1.5 -3.8,2.3 -1.2,1 -3.6,2.1 -7.2,3.2 -3.7,1.1 -7,1.9 -9.9,2.3 -3.1,0.5 -6.9,1.2 -11.4,2 -1.7,0.3 -3.6,0.5 -5.7,0.7 -1.5,0.1 -3,0.3 -4.7,0.5 -2.7,0.2 -5.6,0.5 -8.9,0.6 H 99.027054 l -0.5,0.2 h -5.5 l -0.5,0.1 h -8.8 c -2.7,-0.1 -6.1,-0.6 -9.9,-1.5 -1.2,-0.3 -2.2,-0.5 -3.2,-0.8 h 0.6 1.1 10.5 l 1.5,-0.2 h 4 c 3.7,-0.1 7,-0.4 10.1,-0.9 h 2.399996 c 1.8,-0.4 2.9,-0.7 3.4,-0.9 0.2,0 0.3,0 0.3,-0.1 3.4,-0.6 6.5,-1.3 9.1,-2"
           inkscape:connector-curvature="0"
           style="fill:#d4aa00;fill-rule:nonzero" />
      </g>
      <g
         id="g3047">
        <path
           id="path3049"
           d="m 17.627054,614.46885 c 0,-0.5 0.1,-1.1 0.1,-1.7 0,-3.3 -1.1,-6.2 -3.3,-8.6 0.1,0.3 0.1,0.5 0.2,0.8 v 0.8 c 0,1 -0.4,2 -1,3 -1,1.4 -2.2,2 -4,2 -1,0 -1.9,-0.3 -2.6,-0.7 -0.7,-0.4 -1.3,-0.9 -1.6,-1.7 -0.5,-0.9 -0.8,-1.7 -0.8,-2.6 0,-1.6 0.5,-2.8 1.5,-3.8 0.2,-0.1 0.3,-0.2 0.5,-0.3 0.1,-0.1 0.3,-0.2 0.4,-0.3 0.7,-0.4 1.6,-0.7 2.6,-0.7 h 0.2 c -0.3,-0.1 -0.7,-0.2 -1.1,-0.4 -1.2,-0.4 -2.6,-0.6 -4.1,-0.6 -3,0 -5.5,0.9 -7.8,2.5 -0.6,0.5 -1.1,0.9 -1.5,1.4 -2.6,2.5 -3.8,5.6 -3.8,9.2 0,3.6 1.2,6.7 3.8,9.2 1.1,1.2 2.3,2 3.6,2.7 0.1,0 0.2,0.1 0.4,0.1 0.3,0.2 0.7,0.4 1,0.5 1.3,0.4 2.8,0.7 4.3,0.7 2.6,0 5,-0.8 7.2,-2.3 h 0.1 c 0.6,-0.39999 1.2,-1 1.9,-1.7 2.2,-2.1 3.4,-4.6 3.8,-7.5 m 15.7,20.6 c -0.8,4.3 -2.7,8.20001 -5.4,11.70001 -0.8,1 -1.5,1.89999 -2.3,2.7 -0.1,0.1 -0.2,0.2 -0.4,0.3 -5.7,5.7 -12.6,8.6 -20.7,8.6 -3.3,0 -6.3,-0.4 -9.1,-1.4 -0.8,-0.2 -1.6,-0.5 -2.3,-0.8 -3.5,-1.4 -6.6,-3.5 -9.5,-6.4 -2.6,-2.7 -4.7,-5.7 -6.2,-9 -0.8,-1.8 -1.4,-3.6 -1.8,-5.6 l -0.5,-5.7 v -0.5 l 0.4,-5 c 0.1,-0.9 0.3,-1.8 0.6,-2.8 1,-3.8 2.7,-7.3 5.3,-10.4 0.5,-0.7 1.1,-1.3 1.7,-2 0.1,-0.2 0.4,-0.4 0.5,-0.6 1.8,-1.7 3.6,-3.2 5.6,-4.5 3.2,-1.9 6.5,-3.1 10.2,-3.7 1.7,-0.3 3.3,-0.4 5.1,-0.4 0.8,0 1.7,0.1 2.6,0.1 7,0.5 13,3.4 18.1,8.5 1,1 1.9,2 2.7,3 2.8,3.6 4.6,7.6 5.4,12.1 l 0.6,5.7 v 0.5 z"
           inkscape:connector-curvature="0"
           style="fill:#ffffff;fill-rule:nonzero" />
      </g>
      <g
         id="g3051">
        <path
           id="path3053"
           d="m 17.727152,612.76866 c 0,0.6 -0.1,1.2 -0.1,1.7 -0.4,2.9 -1.6,5.4 -3.8,7.5 -0.7,0.7 -1.3,1.3 -1.9,1.7 h -0.1 c -2.2,1.5 -4.6,2.3 -7.2,2.3 -1.5,0 -3,-0.3 -4.3,-0.7 -0.3,-0.1 -0.7,-0.3 -1,-0.5 -0.2,0 -0.3,-0.1 -0.4,-0.1 -1.3,-0.7 -2.5,-1.5 -3.6,-2.7 -2.6,-2.5 -3.8,-5.6 -3.8,-9.2 0,-3.6 1.2,-6.7 3.8,-9.2 0.4,-0.5 0.9,-0.9 1.5,-1.4 2.3,-1.6 4.8,-2.5 7.8,-2.5 1.5,0 2.9,0.2 4.1,0.6 0.4,0.2 0.8,0.3 1.1,0.4 h -0.2 c -1,0 -1.9,0.3 -2.6,0.7 -0.1,0.1 -0.3,0.2 -0.4,0.3 -0.2,0.1 -0.3,0.2 -0.5,0.3 -1,1 -1.5,2.2 -1.5,3.8 0,0.9 0.3,1.7 0.8,2.6 0.3,0.8 0.9,1.3 1.6,1.7 0.7,0.4 1.6,0.7 2.6,0.7 1.8,0 3,-0.6 4,-2 0.6,-1 1,-2 1,-3 v -0.8 c -0.1,-0.3 -0.1,-0.5 -0.2,-0.8 2.2,2.4 3.3,5.3 3.3,8.6"
           inkscape:connector-curvature="0"
           style="fill:#000000;fill-rule:nonzero" />
      </g>
      <g
         id="g3055">
        <path
           id="path3057"
           d="m 53.627054,641.46885 h -0.2 0.1 z"
           inkscape:connector-curvature="0"
           style="fill:#678c5d;fill-rule:nonzero" />
      </g>
      <g
         style="fill:#d4aa00"
         id="g3059">
        <path
           id="path3061"
           d="m 30.426859,541.76866 c 0,-0.4 -0.2,-0.7 -0.3,-1.1 -1,-5.5 0.1,-10.8 3.5,-16 3.5,-5.3 8.4,-8.5 14.8,-9.5 1.6,-0.4 3.3,-0.5 5.1,-0.5 h 0.2 0.4 0.2 c 1.8,0 3.4,0.1 5.1,0.5 6.3,1 11.2,4.2 14.7,9.5 3.5,5.2 4.6,10.5 3.5,16 -0.1,0.4 -0.2,0.7 -0.2,1.1 -0.2,0.1 -0.2,0.4 -0.3,0.9 -0.2,-1 -0.5,-2 -0.9,-2.6 -1.2,-2.6 -2.7,-5.1 -4.6,-7.4 -5,-6.4 -10.7,-9.7 -17.3,-10 h -0.4 -0.4 c -6.5,0.3 -12.3,3.6 -17.4,10 -1.8,2.3 -3.4,4.8 -4.6,7.4 -0.3,0.6 -0.6,1.6 -0.9,2.6 0,-0.5 -0.1,-0.8 -0.2,-0.9"
           inkscape:connector-curvature="0"
           style="fill:#d4aa00;fill-rule:nonzero" />
      </g>
      <g
         id="g3063">
        <path
           id="path3065"
           d="m 54.82725,559.46885 c 1.3,1.2 3.3,1.8 6,1.6 1.1,-0.1 2.1,-0.29999 3,-0.6 3.8,-1.6 5.4,-4.3 5.1,-8.2 -0.4,-2.2 -1.8,-5.1 -4.3,-8.4 -3.2,-4.3 -6.6,-6.7 -10.3,-7 h -0.4 -0.3 -0.1 c -3.7,0.3 -7.1,2.7 -10.4,7 -2.4,3.3 -3.9,6.2 -4.2,8.4 -0.4,3.9 1.3,6.6 5.1,8.2 0.9,0.3 1.9,0.5 3,0.6 2.6,0.20001 4.6,-0.29999 6,-1.6 -1.9,-1.8 -2.1,-4.3 -0.5,-7.7 0.5,3.6 1,5.8 1.4,6.5 0.2,0.5 0.6,0.9 0.9,1.2 m -12.5,-19 c 0.1,-0.2 0.2,-0.3 0.3,-0.4 2.6,-4 6.3,-6.2 10.9,-6.5 v -0.1 h 0.6 c 0.1,0.1 0.1,0.1 0.2,0 4.6,0.3 8.3,2.5 10.9,6.6 0.1,0.1 0.2,0.20001 0.3,0.4 0.9,1.3 1.9,3.1 3.1,5.3 5.5,10.8 9.3,21.8 11.2,33 -17.2,-2.6 -34.6,-2.6 -51.8,0 1.9,-11.2 5.6,-22.2 11.1,-33 1.3,-2.2 2.3,-4 3.2,-5.3"
           inkscape:connector-curvature="0"
           style="fill:#000000;fill-rule:nonzero" />
      </g>
      <g
         id="g3067">
        <path
           id="path3069"
           d="m 53.026957,549.26866 v 0.3 z m 7.8,11.8 c -2.7,0.2 -4.7,-0.4 -6,-1.6 -0.3,-0.3 -0.7,-0.7 -0.9,-1.2 -0.4,-0.7 -0.9,-2.9 -1.4,-6.5 -1.6,3.4 -1.4,5.9 0.5,7.7 -1.4,1.3 -3.4,1.8 -6,1.6 -1.1,-0.1 -2.1,-0.3 -3,-0.6 -3.8,-1.6 -5.5,-4.3 -5.1,-8.2 0.3,-2.2 1.8,-5.1 4.2,-8.4 3.3,-4.3 6.7,-6.7 10.4,-7 h 0.1 0.3 0.4 c 3.7,0.3 7.1,2.7 10.3,7 2.5,3.3 3.9,6.2 4.3,8.4 0.3,3.9 -1.3,6.6 -5.1,8.2 -0.9,0.3 -1.9,0.5 -3,0.6"
           inkscape:connector-curvature="0"
           style="fill:#d30000;fill-rule:nonzero" />
      </g>
      <g
         id="g3071">
        <path
           id="path3073"
           d="m 53.026957,549.56895 v -0.3 z"
           inkscape:connector-curvature="0"
           style="fill:#000000;fill-rule:nonzero" />
      </g>
      <g
         id="g3075">
        <path
           id="path3077"
           d="m -56.872946,569.96885 c -0.1,0 -0.2,0.1 -0.4,0.2 0.1,-0.2 0.2,-0.39999 0.3,-0.6 0.1,0.1 0.1,0.20001 0.1,0.4"
           inkscape:connector-curvature="0"
           style="fill:#678c5d;fill-rule:nonzero" />
      </g>
      <g
         style="fill:#d4aa00"
         id="g3079">
        <path
           id="path3081"
           d="m -46.772848,511.96886 c -0.4,0.1 -0.8,0.19999 -1.2,0.3 0.3,-0.10001 0.6,-0.10001 1.1,-0.20001 0,0 0.1,0 0.1,-0.1 m -18.2,14.1 v -1.2 -0.1 c 0.1,-0.1 0.1,-0.2 0.1,-0.4 0.2,-2.4 1.9,-5 5,-7.6 0.4,-0.2 0.6,-0.5 1,-0.7 0.3,-0.3 0.5,-0.6 0.8,-0.9 2.6,-2.5 7.1,-4.7 13.4,-6.5 4.6,-1.2 9.3,-2.3 14.2,-3.1 4.7,-0.9 10.6,-1.7 17.6,-2.5 1.5,-0.1 3,-0.4 4.5,-0.5 h 5.6 c 0.2,0 0.4,0 0.5,0.1 0.4,0 1,0.1 1.5,0.1 0.3,0.1 0.5,0.1 0.8,0.1 0,0.1 0.1,0.1 0.1,0.1 h 0.4 c -0.1,0 -0.2,0 -0.3,0.1 h -2.6 c -0.2,0 -0.5,0 -0.7,0.1 h -0.5 c -0.8,-0.1 -1.8,0 -2.9,0.4 -0.8,0.1 -1.6,0.4 -2.5,0.7 -1.9,0.4 -4,1.2 -6.3,2.3 -0.6,0 -1.1,0.1 -1.6,0.1 0.3,0.10001 0.6,0.2 1,0.10001 -1.5,0.8 -3.2,1.7 -5,2.8 -0.2,0.1 -0.5,0.1 -0.9,0.2 -0.7,0.39999 -1.5,0.89999 -2.2,1.39999 -1.4,0.80001 -2.4,1.60001 -3.2,2.3 -2.2,1.3 -4.3,3.1 -6.5,5.2 0,0 0,0.10001 0.1,0.20001 -0.4,0.29999 -0.8,0.6 -1.2,0.9 -0.2,0.29999 -0.4,0.39999 -0.6,0.7 -0.5,0.6 -1.1,1.1 -1.5,1.7 -1,1 -1.9,1.9 -2.6,2.6 -2.3,2.4 -3.5,3.8 -3.8,4 -2,1.7 -4.1,2.8 -6.3,3.4 -1.3,0.5 -2.8,0.8 -4.3,0.8 h -2.7 c -3,-0.3 -5.3,-1.3 -6.7,-2.8 -1.1,-1.2 -1.7,-2.6 -1.7,-4.1"
           inkscape:connector-curvature="0"
           style="fill:#d4aa00;fill-rule:nonzero" />
      </g>
      <g
         id="g3083">
        <path
           id="path3085"
           d="m -47.973043,512.26866 c 0.4,-0.1 0.8,-0.2 1.2,-0.3 0,0.1 -0.1,0.1 -0.1,0.1 -0.5,0.1 -0.8,0.1 -1.1,0.2"
           inkscape:connector-curvature="0"
           style="fill:#59a056;fill-rule:nonzero" />
      </g>
      <g
         style="fill:#d4aa00"
         id="g3087">
        <path
           id="path3089"
           d="m -60.272848,443.16856 c 0,-0.2 0,-0.4 -0.1,-0.6 0.1,0 0.1,-0.2 0.1,-0.2 0.3,-0.7 0.6,-1.2 0.9,-1.5 2.5,-2.7 6,-4 10.6,-4 0.5,0 1.8,0.1 3.8,0.3 1.2,0.4 2.6,0.7 4.1,1.1 3,0.9 6,1.7 8.6,2.6 2,1.1 4.9,2.8 8.6,4.9 0.9,0.6 2,1.1 3.3,1.8 h -0.2 c 1.2,0.6 2.5,1.1 4,1.9 1.4,0.7 3.1,1.5 4.8,2.4 0.7,0.3 1.4,0.6 2.2,1 1.1,0.3 2.3,0.8 3.7,1.2 h 0.1 c 2.7,0.7 5.7,1.4 9,2 0.1,0.1 0.2,0.1 0.3,0.1 0.6,0.2 1.7,0.5 3.5,0.9 h 2.4 c 0.5,0.1 0.9,0.1 1.3,0.1 2.7,0.4 5.6,0.7 8.8,0.8 h 4 l 1.5,0.2 h 10.5 1 0.6 c -0.9,0.3 -2,0.5 -3.1,0.8 -3.9,0.9 -7.2,1.4 -10,1.5 h -8.8 l -0.4,-0.1 h -5.6 l -0.4,-0.2 h -15.3 c -3.3,-0.1 -6.3,-0.4 -8.9,-0.6 -0.9,-0.1 -1.7,-0.2 -2.5,-0.2 -3,-0.3 -5.6,-0.7 -7.9,-1 -4.6,-0.8 -8.3,-1.5 -11.4,-2 -2.9,-0.4 -6.2,-1.2 -9.9,-2.3 -3.7,-1.1 -6,-2.2 -7.3,-3.2 -1.5,-0.8 -2.8,-1.5 -3.7,-2.3 -1.5,-1.2 -2.3,-2.5 -2.3,-4 0,0 0.1,-0.5 0.1,-1.4"
           inkscape:connector-curvature="0"
           style="fill:#d4aa00;fill-rule:nonzero" />
      </g>
      <g
         id="g3091">
        <path
           id="path3093"
           d="m 32.127054,512.16856 v 0.9 c -0.2,-0.4 -0.5,-0.8 -0.7,-1.1 -0.9,-1.3 -1.5,-2.1 -1.9,-2.6 -3.4,-4.2 -6.4,-7.6 -9.3,-10.2 -1.7,-1.6 -4.1,-3.4 -6.8,-5.1 -0.7,-0.4 -1.4,-0.9 -2.1,-1.4 -2.1,-1.2 -4.2,-2.4 -6.3,-3.3 -0.9,-0.4 -2.4,-1 -4.4,-1.7 -2.1,-0.7 -3.6,-1.3 -4.5,-1.6 h -0.1 -0.1 c -1,-0.3 -1.9,-0.6 -2.8,-0.9 -1.9,-0.5 -3.5,-0.9 -4.8,-1.1 -1.2,-0.3 -2.6,-0.5 -3.9,-0.8 -3.2,-0.5 -6.6,-0.9 -10.4,-1.2 -1.8,-0.1 -2.9,-0.1 -3.5,-0.2 -0.5,-0.1 -0.9,-0.2 -1.2,-0.2 h -10.2 v -0.1 h 0.5 c 1.3,-0.1 3.3,-0.4 5.9,-0.6 h 4.7 c 1.3,-0.2 3.8,-0.5 7.5,-1 0.5,-0.1 1,-0.2 1.6,-0.3 h 0.8 c 0.8,-0.2 1.6,-0.3 2.5,-0.4 0.3,-0.1 0.6,-0.1 0.9,-0.1 h 0.2 c 0.4,0 0.9,-0.1 1.4,-0.1 h 0.4 c 0,0 0.1,0 0.1,-0.1 h 0.1 c 0.3,0 0.6,-0.1 0.9,-0.2 h 0.3 c 0.5,0.3 1.3,0.2 2.3,-0.1 0.5,0 1.2,-0.2 2,-0.5 0,0.9 0.2,1.6 0.4,2.2 0.8,0.3 1.6,0.5 2.7,0.8 0.2,0.1 0.4,0.1 0.6,0.2 1.6,0.4 2.5,0.6 2.6,0.7 1.4,0.4 2.3,0.8 2.9,1.2 2.4,1 4.8,2 7.3,3 0.9,0.4 1.7,0.8 2.5,1.3 1.8,0.9 3.5,2 5.2,3.2 0.2,0.2 0.6,0.4 0.8,0.5 l 0.2,0.2 c 3.6,3.1 6.2,5.8 7.8,8.2 2.6,3.8 4.4,6.5 5.5,8.3 0.3,0.3 0.7,1.1 1.3,2 0.5,0.8 0.8,1.6 1,2.2 z"
           inkscape:connector-curvature="0"
           style="fill:#678c5d;fill-rule:nonzero" />
      </g>
      <g
         id="g3095">
        <path
           id="path3097"
           d="m -25.573141,477.26866 c -0.1,0 -0.2,0 -0.3,-0.1 h 1 c -0.2,0.1 -0.5,0.1 -0.7,0.1"
           inkscape:connector-curvature="0"
           style="fill:#678c5d;fill-rule:nonzero" />
      </g>
      <g
         style="fill:#d4aa00"
         id="g3099">
        <path
           id="path3101"
           d="m 176.72715,535.86876 c 2.4,2.7 4.9,6.5 7.4,11.7 1.5,2.9 3,6.1 4.4,9.5 0,0.1 0.1,0.1 0.1,0.1 0.3,0.6 0.5,1.1 0.6,1.6 0.1,0.3 0.2,0.5 0.3,0.8 0.2,0.6 0.4,1.2 0.6,1.8 0.4,0.8 0.8,1.6 1.1,2.3 0.8,2.4 1.5,4.3 2,5.8 0.6,1.4 1.2,2.8 1.8,4.1 4.2,11.3 11.6,15.8 22.1,13.5 2.8,-0.8 5.7,-2 8.6,-3.9 1.8,-1.1 3.5,-2.4 5,-3.7 9.7,-10.4 13,-23.3 10.1,-38.5 0.4,1 0.8,2.1 1.2,3.2 0.1,0.4 0.1,0.6 0.2,1 0.4,0.4 0.5,1.1 0.5,2 0.7,2.1 1.2,3.7 1.5,4.8 0.3,0.7 0.5,1.3 0.7,2.1 0.7,3 1.1,6.2 1.1,9.7 0,2.7 -0.7,6 -2.1,10.1 -1.5,4.3 -3.2,7.3 -4.9,9.2 -2.6,2.9 -4.1,4.5 -4.4,4.7 -2,1.9 -4.1,3.4 -6.4,4.6 -5.8,3.1 -9.8,4.8 -12.2,5.1 -1.6,0.4 -3.3,0.6 -4.8,0.6 -4.2,0 -8.3,-0.5 -12.2,-1.5 -12.2,-3.8 -21.6,-12.4 -28.1,-25.6 -1.8,-3.7 -4.8,-8.4 -9.2,-14.2 -1.3,-1.2 -3.3,-3.6 -5.9,-7 -1.6,-1.9 -3.5,-4 -5.8,-6 -3.2,-2.8 -8.1,-5.9 -14.9,-9.2 -6.6,-3.3 -11.5,-5.1 -14.4,-5.5 -3,-0.4 -5.5,-0.6 -7.5,-0.5 -2,0 -3,-0.1 -3,-0.4 2.6,-0.6 5.9,-0.9 10,-0.9 6.3,0 11.3,0.7 15.2,1.9 2.1,0.8 4.6,2.1 7.6,4 9.1,6.6 18.6,8.5 28.5,5.6 2,-0.7 3.7,-1.7 5.2,-2.9"
           inkscape:connector-curvature="0"
           style="fill:#d4aa00;fill-rule:nonzero" />
      </g>
      <g
         style="fill:#d4aa00"
         id="g3103">
        <path
           id="path3105"
           d="m 133.42686,413.66856 c -0.8,0.9 -1.4,1.7 -2.1,2.4 -0.1,0.1 -0.2,0.2 -0.3,0.3 -5.6,5.5 -13,10.2 -22.3,14.3 -1.7,1 -3.5,2.1 -5.4,3.1 -0.2,0.1 -0.6,0.4 -0.8,0.5 -1.2,0.6 -2.4,1.2 -3.600001,1.8 -3.2,1.6 -6.6,3.1 -10.2,4.5 -3.8,1.6 -7.9,3.8 -12.1,6.9 0,0.1 -0.1,0.2 -0.1,0.2 -1.4,1.3 -3.4,3.4 -6,6.4 -3.3,3.6 -6,7.6 -8.4,12 -2,3.6 -4,7.9 -5.7,12.7 -0.7,2.2 -1.3,4 -1.8,5.7 0,0.3 -0.1,0.7 -0.3,1 -0.2,0.4 -0.2,0.8 -0.4,1.2 -0.2,0.4 -0.3,0.8 -0.4,1.1 v -2.3 c -0.1,-0.3 -0.3,-0.7 -0.4,-1 -0.5,-1.7 -1.1,-3.5 -1.7,-5.7 -1.8,-4.8 -3.7,-9.1 -5.7,-12.7 -2.4,-4.4 -5.2,-8.4 -8.4,-12 -2.7,-3 -4.7,-5.1 -6,-6.4 -0.1,0 -0.2,-0.1 -0.2,-0.2 -4.1,-3.1 -8.2,-5.3 -12,-6.9 -3.6,-1.4 -7,-2.9 -10.2,-4.5 -1.3,-0.6 -2.4,-1.2 -3.6,-1.8 -0.3,-0.1 -0.6,-0.4 -0.8,-0.5 -1.9,-1 -3.8,-2.1 -5.5,-3.1 -9.3,-4.1 -16.6,-8.8 -22.2,-14.3 -0.2,-0.1 -0.2,-0.2 -0.3,-0.3 -0.7,-0.7 -1.4,-1.5 -2.1,-2.4 -5,-6.4 -7.6,-13 -7.8,-19.8 v -0.5 c -0.8,-12.8 6.3,-20.6 21.1,-23.3 0.4,-0.1 0.9,-0.1 1.3,-0.1 1.1,-0.2 2.3,-0.2 3.6,-0.2 7.9,0 15,1.7 21.5,5.2 0.8,0.5 1.5,0.9 2.3,1.3 0.3,0.2 0.7,0.5 1.1,0.8 0.6,0.4 2.6,2.3 6.1,5.7 0.1,0.1 0.1,0.1 0.2,0.1 0.4,0.5 1.3,1.8 2.7,4 l -3.9,-2.9 c -0.3,-0.1 -0.6,-0.3 -1,-0.6 -3.2,-1.5 -6.2,-2.9 -8.9,-3.9 -3,-1.1 -5.6,-1.8 -7.8,-2.2 -15.3,-3.5 -23.5,0.2 -24.8,11.1 -0.3,1.3 -0.5,2.5 -0.5,3.6 v 1.9 c 0.3,4.9 1.6,9 4.1,12.1 2.4,3.1 6.3,5.9 11.7,8.7 3.3,1.7 9.4,4.4 18.2,8.1 8.8,3.9 16.6,8.1 23.7,12.5 6.1,3.8 11.6,8.9 16.6,15.6 5,-6.7 10.5,-11.8 16.6,-15.6 7,-4.4 14.9,-8.6 23.6,-12.5 8.900001,-3.7 14.900001,-6.4 18.300001,-8.1 5.4,-2.8 9.3,-5.6 11.7,-8.7 2.4,-3.1 3.8,-7.2 4,-12.1 v -1.9 c 0,-1.1 -0.1,-2.3 -0.5,-3.6 -1.2,-10.9 -9.5,-14.6 -24.7,-11.1 -1.8,0.3 -3.900001,0.9 -6.300001,1.7 -2.9,1 -6,2.3 -9.6,4 -0.6,0.4 -1.3,0.7 -1.9,1 l -3.9,2.9 c 1.4,-2.2 2.4,-3.5 2.8,-4 0,0 0.1,0 0.1,-0.1 l 0.5,-0.5 c 3.3,-3.1 5.1,-4.8 5.6,-5.2 0.7,-0.4 1.4,-0.9 2.2,-1.3 0.4,-0.3 0.8,-0.5 1.2,-0.8 6.500001,-3.5 13.700001,-5.2 21.600001,-5.2 1.3,0 2.4,0 3.6,0.2 0.4,0 0.8,0 1.2,0.1 14.9,2.7 22,10.5 21.1,23.3 v 0.5 c -0.1,6.8 -2.7,13.4 -7.7,19.8"
           inkscape:connector-curvature="0"
           style="fill:#d4aa00;fill-rule:nonzero" />
      </g>
      <g
         style="fill:#d4aa00"
         id="g3107">
        <path
           id="path3109"
           d="m 82.426859,668.66856 c 0,-1.6 -0.6,-2.9 -1.7,-4 -1.1,-1.2 -2.5,-1.7 -4.1,-1.7 -1.6,0 -3,0.5 -4,1.7 -1.2,1.1 -1.7,2.4 -1.7,4 0,1.6 0.5,3 1.7,4.1 1,1.1 2.4,1.7 4,1.7 1.6,0 3,-0.6 4.1,-1.7 1.1,-1.1 1.7,-2.5 1.7,-4.1 m -47.2,-4 c -1.1,-1.2 -2.5,-1.7 -4.1,-1.7 -1.5,0 -2.9,0.5 -4,1.7 -1.1,1.1 -1.7,2.4 -1.7,4 0,1.6 0.6,3 1.7,4.1 1.1,1.1 2.5,1.7 4,1.7 1.6,0 3,-0.6 4.1,-1.7 1.2,-1.1 1.7,-2.5 1.7,-4.1 0,-1.6 -0.5,-2.9 -1.7,-4 m 14.3,-6.6 c 0.1,0.6 0.4,1.1 0.9,1.5 0,0.1 0,0.1 0.1,0.1 0.8,0.8 1.9,1.3 3.1,1.3 1.3,0 2.3,-0.5 3.1,-1.3 0.9,-0.9 1.4,-1.9 1.4,-3.2 0,-1.2 -0.5,-2.2 -1.4,-3.1 -0.8,-0.9 -1.8,-1.3 -3.1,-1.3 -1.2,0 -2.3,0.4 -3.1,1.3 l -0.1,0.1 c -0.5,0.5 -0.8,0.9 -0.9,1.5 -0.3,0.5 -0.4,1 -0.4,1.5 0,0.6 0.1,1.2 0.4,1.6 m 7.8,17.6 c 0.1,-0.2 0.1,-0.4 0.1,-0.7 0,-1 -0.3,-1.8 -1,-2.5 -0.7,-0.6 -1.4,-1 -2.3,-1 h -0.2 c -0.9,0 -1.8,0.3 -2.4,1 -0.8,0.7 -1.1,1.5 -1.1,2.5 v 0.2 c 0.1,0.8 0.4,1.6 1.1,2.3 0.6,0.7 1.5,1 2.4,1 0.7,0 1.4,-0.2 2,-0.7 0.2,0 0.3,-0.2 0.5,-0.3 0.5,-0.5 0.8,-1.2 0.9,-1.8 m -29.4,-15.2 c 7,-4.1 12.8,-8.2 17.3,-12.2 5.8,-5 11.5,-5 17.3,0 4.6,4 10.4,8.1 17.4,12.2 7.6,4.5 15.8,6.8 24.500001,6.8 h 0.1 1.1 c -1.8,1.5 -3.8,3 -6.000001,4.3 -11.6,7.2 -25.7,10.8 -42.3,10.8 -1.1,0 -2.1,0 -3.2,-0.1 -1.2,0.1 -2.4,0.1 -3.6,0.1 -16.6,0 -30.7,-3.6 -42.4,-10.8 -2.1,-1.3 -4.1,-2.8 -6,-4.3 h 1.1 0.2 c 8.7,0 16.8,-2.3 24.5,-6.8"
           inkscape:connector-curvature="0"
           style="fill:#d4aa00;fill-rule:nonzero" />
      </g>
      <g
         style="fill:#ffcc00"
         id="g3111">
        <path
           id="path3113"
           d="m 57.426859,674.96885 c 0,0.3 0,0.5 -0.1,0.7 -0.1,0.60001 -0.4,1.3 -0.9,1.8 -0.2,0.1 -0.3,0.3 -0.5,0.3 -0.6,0.5 -1.3,0.7 -2,0.7 -0.9,0 -1.8,-0.3 -2.4,-1 -0.7,-0.7 -1,-1.5 -1.1,-2.3 v -0.2 c 0,-1 0.3,-1.8 1.1,-2.5 0.6,-0.7 1.5,-1 2.4,-1 h 0.2 c 0.9,0 1.6,0.4 2.3,1 0.7,0.7 1,1.5 1,2.5"
           inkscape:connector-curvature="0"
           style="fill:#ffcc00;fill-rule:nonzero" />
      </g>
      <g
         style="fill:#ffcc00"
         id="g3115">
        <path
           id="path3117"
           d="m 50.426859,659.56895 c -0.5,-0.4 -0.8,-0.9 -0.9,-1.5 -0.3,-0.4 -0.4,-1 -0.4,-1.6 0,-0.5 0.1,-1 0.4,-1.5 0.1,-0.6 0.4,-1 0.9,-1.5 l 0.1,-0.1 c 0.8,-0.9 1.9,-1.3 3.1,-1.3 1.3,0 2.3,0.4 3.1,1.3 0.9,0.9 1.4,1.9 1.4,3.1 0,1.3 -0.5,2.3 -1.4,3.2 -0.8,0.8 -1.8,1.3 -3.1,1.3 -1.2,0 -2.3,-0.5 -3.1,-1.3 -0.1,0 -0.1,0 -0.1,-0.1"
           inkscape:connector-curvature="0"
           style="fill:#ffcc00;fill-rule:nonzero" />
      </g>
      <g
         style="fill:#ffcc00"
         id="g3119">
        <path
           id="path3121"
           d="m 31.127054,662.96885 c 1.6,0 3,0.5 4.1,1.7 1.2,1.10001 1.7,2.4 1.7,4 0,1.60001 -0.5,3 -1.7,4.10001 -1.1,1.1 -2.5,1.7 -4.1,1.7 -1.5,0 -2.9,-0.6 -4,-1.7 -1.1,-1.10001 -1.7,-2.5 -1.7,-4.10001 0,-1.6 0.6,-2.89999 1.7,-4 1.1,-1.2 2.5,-1.7 4,-1.7"
           inkscape:connector-curvature="0"
           style="fill:#ffcc00;fill-rule:nonzero" />
      </g>
      <g
         style="fill:#ffcc00"
         id="g3123">
        <path
           id="path3125"
           d="m 80.727152,664.66856 c 1.1,1.1 1.7,2.4 1.7,4 0,1.6 -0.6,3 -1.7,4.1 -1.1,1.1 -2.5,1.7 -4.1,1.7 -1.6,0 -3,-0.6 -4,-1.7 -1.2,-1.1 -1.7,-2.5 -1.7,-4.1 0,-1.6 0.5,-2.9 1.7,-4 1,-1.2 2.4,-1.7 4,-1.7 1.6,0 3,0.5 4.1,1.7"
           inkscape:connector-curvature="0"
           style="fill:#ffcc00;fill-rule:nonzero" />
      </g>
      <g
         style="fill:#d4aa00"
         id="g3127">
        <path
           id="path3129"
           d="m 2.127054,573.26866 c 0.9,0 1.8,-0.3 2.4,-1 0.6,-0.6 1,-1.5 1,-2.4 0,-0.9 -0.4,-1.8 -1,-2.4 -0.6,-0.7 -1.5,-1 -2.4,-1 -1,0 -1.9,0.3 -2.5,1 -0.6,0.6 -1,1.5 -1,2.4 0,0.9 0.4,1.8 1,2.4 0.6,0.7 1.5,1 2.5,1 m -3.5,14.4 c 1.1,1 2.4,1.6 3.9,1.6 1.5,0 2.8,-0.6 3.9,-1.6 1,-1 1.6,-2.4 1.6,-3.9 0,-1.5 -0.6,-2.7 -1.6,-3.8 -1.1,-1 -2.4,-1.6 -3.9,-1.6 -1.5,0 -2.8,0.6 -3.9,1.6 -1,1.1 -1.5,2.3 -1.5,3.8 0,1.5 0.5,2.9 1.5,3.9 m 15.2,5.8 c -1,-0.3 -2,-0.5 -3,-0.8 -2.4,-0.4 -4.9,-0.6 -7.6,-0.6 -10.4,0 -19.3,3.6 -26.6,11 -0.3,0.2 -0.5,0.5 -0.7,0.6 0.3,-1 1.1,-3.2 2.1,-6.8 0.5,-1.8 1.5,-4.2 3,-7.2 0.8,-1.6 2.1,-4 3.7,-7 1.8,-3.5 4.8,-8.4 8.9,-14.4 2.3,-3.6 3.7,-7 4.5,-10 v -0.2 c 0.3,-0.9 0.5,-1.6 0.6,-2.4 1.4,0.6 2.8,1.4 4.2,2.5 0.9,0.6 1.7,1.3 2.3,2 0.7,0.8 1.3,1.6 1.8,2.5 0.6,1.3 1.4,3 2.2,5.3 0.9,2.3 1.6,4.1 2.2,5.2 1.5,3 2.3,4.7 2.7,5.3 1.1,1.9 2.5,3.6 4.3,5.1 0,0 0.1,0.1 0.2,0.1 l 0.3,0.2 c 0.6,0.4 1.2,0.8 1.8,1.3 0.3,0.1 1,0.5 2.2,1 1,0.8 2.2,1.5 3.4,2.4 3.8,2.5 5.9,4.5 6.5,6.1 0.2,0.5 0.7,1.6 1.4,3.3 0.5,1.2 0.9,2.1 1.2,2.8 -1.3,-0.9 -2.9,-1.8 -4.8,-2.7 -1.2,-0.5 -2.5,-1.1 -3.7,-1.6 z"
           inkscape:connector-curvature="0"
           style="fill:#d4aa00;fill-rule:nonzero" />
      </g>
      <g
         style="fill:#ffcc00"
         id="g3131">
        <path
           id="path3133"
           d="m 2.526957,589.26866 c -1.5,0 -2.8,-0.6 -3.9,-1.6 -1,-1 -1.5,-2.4 -1.5,-3.9 0,-1.5 0.5,-2.7 1.5,-3.8 1.1,-1 2.4,-1.6 3.9,-1.6 1.5,0 2.8,0.6 3.9,1.6 1,1.1 1.6,2.3 1.6,3.8 0,1.5 -0.6,2.9 -1.6,3.9 -1.1,1 -2.4,1.6 -3.9,1.6"
           inkscape:connector-curvature="0"
           style="fill:#ffcc00;fill-rule:nonzero" />
      </g>
      <g
         style="fill:#ffcc00"
         id="g3135">
        <path
           id="path3137"
           d="m 4.526957,572.26866 c -0.6,0.7 -1.5,1 -2.4,1 -1,0 -1.9,-0.3 -2.5,-1 -0.6,-0.6 -1,-1.5 -1,-2.4 0,-0.9 0.4,-1.8 1,-2.4 0.6,-0.7 1.5,-1 2.5,-1 0.9,0 1.8,0.3 2.4,1 0.6,0.6 1,1.5 1,2.4 0,0.9 -0.4,1.8 -1,2.4"
           inkscape:connector-curvature="0"
           style="fill:#ffcc00;fill-rule:nonzero" />
      </g>
      <g
         style="fill:#d4aa00"
         id="g3139">
        <path
           id="path3141"
           d="m -27.372946,534.56895 c -6.7,3.3 -11.6,6.4 -14.8,9.2 -2.3,2 -4.3,4.1 -5.8,6 -2.6,3.4 -4.6,5.8 -5.9,7 -4.4,5.8 -7.5,10.5 -9.2,14.2 -6.5,13.2 -15.9,21.8 -28.2,25.6 -3.8,1 -7.9,1.5 -12.100004,1.5 -1.6,0 -3.2,-0.2 -4.9,-0.6 -2.3,-0.3 -6.3,-2 -12.2,-5.1 -2.3,-1.2 -4.4,-2.7 -6.4,-4.6 -0.2,-0.2 -1.7,-1.8 -4.4,-4.7 -1.7,-1.9 -3.3,-4.9 -4.8,-9.2 -1.4,-4.1 -2.2,-7.4 -2.2,-10.1 0,-3.5 0.4,-6.7 1.2,-9.7 0.2,-0.8 0.3,-1.4 0.6,-2.1 0.4,-1.1 0.9,-2.7 1.5,-4.8 0.1,-0.9 0.2,-1.6 0.6,-2 0,-0.4 0.1,-0.6 0.2,-1 0.3,-1.1 0.7,-2.2 1.2,-3.2 -3,15.2 0.4,28.1 10,38.5 1.6,1.3 3.2,2.6 5,3.7 3,1.9 5.9,3.1 8.6,3.9 10.500004,2.3 18.000004,-2.2 22.100004,-13.5 0.7,-1.3 1.3,-2.7 1.8,-4.1 0.6,-1.5 1.2,-3.4 2,-5.8 0.4,-0.7 0.7,-1.5 1.1,-2.3 0.3,-0.6 0.5,-1.2 0.7,-1.8 0.1,-0.3 0.2,-0.5 0.3,-0.8 0.1,-0.5 0.3,-1 0.5,-1.6 0.1,0 0.1,0 0.2,-0.1 1.3,-3.4 2.8,-6.6 4.3,-9.5 2.6,-5.2 5,-9 7.4,-11.7 1.6,1.2 3.3,2.2 5.2,2.9 9.9,2.9 19.4,1 28.6,-5.6 2.9,-1.9 5.4,-3.2 7.6,-4 3.8,-1.2 8.9,-1.9 15.2,-1.9 4,0 7.4,0.3 10,0.9 0,0.3 -1,0.4 -3,0.4 -2.1,-0.1 -4.6,0.1 -7.5,0.5 -3,0.4 -7.9,2.2 -14.5,5.5"
           inkscape:connector-curvature="0"
           style="fill:#d4aa00;fill-rule:nonzero" />
      </g>
      <g
         id="g3143">
        <path
           id="path3145"
           d="m 226.32725,503.06895 c 0.1,-0.1 0.1,-0.2 0.1,-0.3 v 0.1 c 0,0.1 0,0.1 -0.1,0.2"
           inkscape:connector-curvature="0"
           style="fill:#59a056;fill-rule:nonzero" />
      </g>
      <g
         id="g3147">
        <path
           id="path3149"
           d="m 182.62705,443.86876 c 0,0.1 0,0.3 0.1,0.5 -0.1,-0.2 -0.1,-0.2 -0.1,-0.4 z"
           inkscape:connector-curvature="0"
           style="fill:#59a056;fill-rule:nonzero" />
      </g>
      <g
         id="g3151">
        <path
           id="path3153"
           d="m -118.47304,503.06895 c -0.1,-0.1 -0.1,-0.1 -0.1,-0.2 v -0.1 c 0,0.1 0,0.2 0.1,0.3"
           inkscape:connector-curvature="0"
           style="fill:#59a056;fill-rule:nonzero" />
      </g>
      <g
         id="g3155">
        <path
           id="path3157"
           d="m -74.872946,444.36876 v -0.5 0.1 z"
           inkscape:connector-curvature="0"
           style="fill:#59a056;fill-rule:nonzero" />
      </g>
      <g
         id="g3159">
        <path
           id="path3161"
           d="m 12.426859,398.86876 c 0,-0.1 -0.1,-0.4 -0.2,-0.5 0.4,0.4 0.9,0.6 1.2,1 -0.3,-0.2 -0.7,-0.4 -1,-0.5"
           inkscape:connector-curvature="0"
           style="fill:#59a056;fill-rule:nonzero" />
      </g>
      <g
         id="g3163">
        <path
           id="path3165"
           d="m 16.727152,402.46886 c 0,0.19999 0.2,0.3 0.3,0.39999 h -0.2 c -0.1,-0.1 -0.1,-0.2 -0.1,-0.39999"
           inkscape:connector-curvature="0"
           style="fill:#59a056;fill-rule:nonzero" />
      </g>
      <g
         id="g3167">
        <path
           id="path3169"
           d="m 95.426859,398.86876 c -0.4,0.1 -0.8,0.3 -1,0.5 0.3,-0.4 0.7,-0.6 1.1,-1 0,0.1 -0.1,0.4 -0.1,0.5"
           inkscape:connector-curvature="0"
           style="fill:#59a056;fill-rule:nonzero" />
      </g>
      <g
         id="g3171">
        <path
           id="path3173"
           d="m 91.026957,402.86876 h -0.2 c 0.1,-0.1 0.2,-0.2 0.3,-0.4 0,0.2 -0.1,0.3 -0.1,0.4"
           inkscape:connector-curvature="0"
           style="fill:#59a056;fill-rule:nonzero" />
      </g>
      <g
         id="g3191">
        <g
           id="g3193" />
        <g
           id="g3199">
          <g
             id="g3201"
             clip-path="url(#clipPath3195)"
             style="opacity:0.69999701">
            <g
               id="g3203">
              <path
                 id="path3205"
                 d="m 4.627054,504.16856 c -0.1,-0.3 -0.4,-0.5 -0.5,-0.7 0.9,0.1 1.8,0.2 2.5,0.3 3.9,0.9 6.9,1.6 8.9,2.2 2.1,5.4 4.9,10.9 8.1,16.5 -5.2,-2.6 -11.5,-8.7 -19,-18.3"
                 inkscape:connector-curvature="0"
                 style="fill:#bacbe6;fill-rule:nonzero" />
            </g>
          </g>
        </g>
      </g>
      <g
         id="g3207">
        <g
           id="g3209" />
        <g
           id="g3215">
          <g
             id="g3217"
             clip-path="url(#clipPath3211)"
             style="opacity:0.69999701">
            <g
               id="g3219">
              <path
                 id="path3221"
                 d="m 10.227152,487.56895 c -0.8,-0.5 -1.6,-0.9 -2.5,-1.3 -2.5,-1 -4.9,-2 -7.3,-3 -0.6,-0.4 -1.5,-0.8 -2.9,-1.2 -0.1,-0.1 -1,-0.3 -2.6,-0.7 -0.3,-1.2 -0.4,-2.6 -0.7,-3.9 1.1,-0.3 2.3,-0.6 3.7,-0.9 4.6,-1.5 8.2,-2.8 11.1,-4 0,5 0.4,10 1.2,15"
                 inkscape:connector-curvature="0"
                 style="fill:#bacbe6;fill-rule:nonzero" />
            </g>
          </g>
        </g>
      </g>
      <g
         id="g3223">
        <g
           id="g3225" />
        <g
           id="g3231">
          <g
             id="g3233"
             clip-path="url(#clipPath3227)"
             style="opacity:0.69999701">
            <g
               id="g3235">
              <path
                 id="path3237"
                 d="m -5.772848,477.46886 c 0.3,1.3 0.4,2.69999 0.7,3.89999 -0.2,-0.1 -0.4,-0.1 -0.6,-0.2 -1.6,-0.5 -2.8,-0.8 -3.8,-1 -0.7,-0.19999 -1.4,-0.5 -2.4,-0.8 -0.5,-0.2 -1,-0.39999 -1.5,-0.6 h 0.3 c 0.5,0.3 1.3,0.2 2.3,-0.1 1,-0.2 2.7,-0.6 5,-1.2"
                 inkscape:connector-curvature="0"
                 style="fill:#e3eff8;fill-rule:nonzero" />
            </g>
          </g>
        </g>
      </g>
      <g
         id="g3239">
        <g
           id="g3241" />
        <g
           id="g3247">
          <g
             id="g3249"
             clip-path="url(#clipPath3243)"
             style="opacity:0.69999701">
            <g
               id="g3251">
              <path
                 id="path3253"
                 d="m -9.573141,452.86876 c -0.8,-0.4 -1.5,-0.7 -2.2,-1 -1.7,-0.9 -3.4,-1.7 -4.8,-2.4 2.6,-14.1 9.3,-26.4 20,-37.1 3.1,-3.1 6.4,-6 9.8,-8.4 0.1,-0.1 0.2,-0.1 0.2,-0.1 0.3,-0.2 0.6,-0.4 0.9,-0.6 h 0.1 c 0,-0.1 0.1,-0.1 0.2,-0.2 2,1.8 5.4,3.3 9.9,4.7 1.2,0.4 2.5,0.7 3.8,1.1 -0.4,0.3 -0.8,0.5 -1.2,0.9 -0.1,0 -0.2,-0.1 -0.4,-0.1 -0.1,0.1 -0.3,0.2 -0.5,0.2 -5.3,2.9 -10.2,6.5 -14.8,11.2 -9.5,9.5 -15.3,20.4 -17.2,33 h -0.1 c -1.4,-0.4 -2.6,-0.9 -3.7,-1.2"
                 inkscape:connector-curvature="0"
                 style="fill:#e3eff8;fill-rule:nonzero" />
            </g>
          </g>
        </g>
      </g>
      <g
         id="g3255">
        <g
           id="g3257" />
        <g
           id="g3263">
          <g
             id="g3265"
             clip-path="url(#clipPath3259)"
             style="opacity:0.69999701">
            <g
               id="g3267">
              <path
                 id="path3269"
                 d="m 3.227152,456.06895 c -3.3,-0.6 -6.3,-1.3 -9,-2 1.9,-12.6 7.7,-23.5 17.2,-33 4.6,-4.7 9.5,-8.3 14.8,-11.2 0.2,0 0.4,-0.1 0.5,-0.2 0.2,0 0.3,0.1 0.4,0.1 0.4,-0.4 0.8,-0.6 1.2,-0.9 3.9,0.9 8.2,1.6 12.7,2.1 4.4,0.4 9,0.7 13.9,0.7 h 3 c -0.3,0 -0.5,0 -0.8,0.1 -21,2.9 -35.3,14.1 -42.9,33.6 -1.5,4 -2.6,7.9 -3.5,11.8 -0.4,0 -0.8,0 -1.3,-0.1 h -2.4 c -1.8,-0.4 -2.9,-0.7 -3.5,-0.9 -0.1,0 -0.2,0 -0.3,-0.1"
                 inkscape:connector-curvature="0"
                 style="fill:#bacbe6;fill-rule:nonzero" />
            </g>
          </g>
        </g>
      </g>
      <g
         id="g3271">
        <path
           id="path3273"
           d="m 18.127054,400.86876 -1.4,0.8 c -0.2,0.2 -0.6,0.3 -0.8,0.5 -0.3,0.2 -0.5,0.3 -0.8,0.5 -0.1,0.2 -0.4,0.2 -0.5,0.4 -0.8,-0.7 -1.4,-1.3 -1.9,-2 -0.6,-0.9 -0.8,-1.9 -0.8,-2.9 v -0.1 c 0,-0.8 0.2,-1.7 0.7,-2.6 0,-0.2 0,-0.5 0.1,-0.7 0,0.1 0.2,0.2 0.2,0.3 0.2,-0.4 0.6,-0.8 1,-1.2 1.3,-1.2 3.3,-2.5 6,-3.5 1.3,-0.6 2.8,-1.1 4.6,-1.7 4,-1.3 8.4,-2.3 13.2,-2.9 5.7,-0.6 11.9,-0.9 18.4,-0.9 3.5,0 6.8,0.1 10,0.3 7.1,0.5 13.5,1.7 19.1,3.5 1.4,0.5 2.7,0.8 3.9,1.3 h -0.1 c 4.1,1.9 6.6,3.5 7.6,4.8 0.1,0.1 0.2,0.2 0.3,0.3 0.2,0.4 0.5,0.8 0.7,1.3 0.2,0.5 0.3,1.1 0.3,1.8 0,1.7 -0.9,3.3 -2.7,4.8 -0.5,-0.3 -1,-0.6 -1.4,-1 -0.2,-0.1 -0.3,-0.1 -0.4,-0.2 l -0.2,-0.1 c -0.1,-0.1 -0.3,-0.2 -0.5,-0.3 -0.6,-0.5 -1.2,-0.9 -1.9,-1.2 l -0.7,-0.4 -1.3,-0.7 -0.1,-0.1 c -0.4,-0.1 -0.8,-0.3 -1.2,-0.6 -0.1,0 -0.4,-0.1 -0.5,-0.2 -0.1,-0.1 -0.4,-0.2 -0.5,-0.3 -1.6,-0.7 -3.2,-1.4 -4.8,-2 -18.3,-5.5 -36.1,-5.5 -53.4,0 -1,0.4 -2,0.8 -3,1.2 -1.8,0.8 -3.6,1.8 -5.3,2.7 -0.1,0.1 -0.1,0.1 -0.2,0.1 -0.6,0.3 -1.2,0.6 -1.7,1"
           inkscape:connector-curvature="0"
           style="fill:#ffed00;fill-rule:nonzero" />
      </g>
      <g
         id="g3275">
        <path
           id="path3277"
           d="m 16.727152,401.66856 1.4,-0.8 c 0.5,-0.4 1.1,-0.7 1.7,-1 0.1,0 0.1,0 0.2,-0.1 1.7,-0.9 3.5,-1.9 5.3,-2.7 1,-0.4 2,-0.8 3,-1.2 17.3,-5.5 35.1,-5.5 53.4,0 1.6,0.6 3.2,1.3 4.8,2 0.1,0.1 0.4,0.2 0.5,0.3 0.1,0.1 0.4,0.2 0.5,0.2 0.4,0.3 0.8,0.5 1.2,0.6 l 0.1,0.1 1.3,0.7 0.7,0.4 c 0.7,0.3 1.3,0.7 1.9,1.2 0.2,0.1 0.4,0.2 0.5,0.3 l 0.2,0.1 c 0.1,0.1 0.2,0.1 0.4,0.2 0.4,0.4 0.9,0.7 1.4,1 -2.1,1.8 -5.4,3.4 -10,4.8 -1.1,0.4 -2.3,0.7 -3.5,1 -1.3,-0.9 -2.7,-1.5 -4.2,-1.9 0.2,0.1 0.5,0.2 0.6,0.3 -2.5,-1 -5,-1.9 -7.5,-2.6 -10.7,-2.9 -21.2,-2.9 -31.5,0 -3.4,0.9 -6.7,2.3 -10,3.8 -0.2,0.1 -0.5,0.3 -0.7,0.4 0,0.1 0,0.1 -0.1,0.1 -1.3,-0.4 -2.6,-0.7 -3.8,-1.1 -4.5,-1.4 -7.9,-2.9 -9.9,-4.7 0.1,-0.2 0.4,-0.2 0.5,-0.4 0.3,-0.2 0.5,-0.3 0.8,-0.5 0.2,-0.2 0.6,-0.3 0.8,-0.5"
           inkscape:connector-curvature="0"
           style="fill:#f2e029;fill-rule:nonzero" />
      </g>
      <g
         id="g3279">
        <path
           id="path3281"
           d="m 90.026957,390.16856 v 0.1 c 0.8,0.1 0.9,0.1 0,-0.1 m -76.1,3.7 c 1.6,-2.1 1.8,-4.4 0.6,-6.7 1.6,-1.3 4,-2.6 7.1,-3.8 0.4,0.3 0.7,0.5 1,0.6 l 3.9,2.9 -1.3,-2.9 c -0.2,-0.5 -0.5,-1 -0.7,-1.5 8.4,-2.7 18.5,-4 30.4,-4 11.1,0 20.7,1.2 28.7,3.5 -0.4,0.7 -0.7,1.3 -1,2 l -1.4,2.9 3.9,-2.9 c 0.6,-0.3 1.3,-0.6 1.9,-1 3.4,1.2 6,2.5 7.9,3.9 -0.9,2.5 -0.3,5.1 1.7,7.9 -1,-1.3 -3.5,-2.9 -7.6,-4.8 h 0.1 -0.1 0.1 c -1.2,-0.5 -2.5,-0.8 -3.9,-1.3 -5.6,-1.8 -12,-3 -19.1,-3.5 -3.2,-0.2 -6.5,-0.3 -10,-0.3 -6.5,0 -12.7,0.3 -18.4,0.9 -4.8,0.6 -9.2,1.6 -13.2,2.9 -1.8,0.6 -3.3,1.1 -4.6,1.7 -2.7,1 -4.7,2.3 -6,3.5"
           inkscape:connector-curvature="0"
           style="fill:#e3d33c;fill-rule:nonzero" />
      </g>
      <g
         id="g3283">
        <path
           id="path3285"
           d="m 90.026957,390.26866 v -0.1 c 0.9,0.2 0.8,0.2 0,0.1"
           inkscape:connector-curvature="0"
           style="fill:#ffed00;fill-rule:nonzero" />
      </g>
      <g
         id="g3287">
        <path
           id="path3289"
           d="m 11.926859,382.36876 v -0.1 c 0,-1 0.3,-1.9 0.8,-2.8 2.7,1 5.7,2.4 8.9,3.9 -3.1,1.2 -5.5,2.5 -7.1,3.8 -1.8,-1.4 -2.6,-3 -2.6,-4.8"
           inkscape:connector-curvature="0"
           style="fill:#ffed00;fill-rule:nonzero" />
      </g>
      <g
         id="g3291">
        <path
           id="path3293"
           d="m 24.526957,382.46886 c -1.5,-2.80001 -3.3,-5.5 -5.1,-7.7 1.5,-0.7 3.2,-1.3 5.1,-1.9 8.4,-2.6 18.5,-4 30.4,-4 11.8,0 22,1.4 30.3,4 1.4,0.4 2.5,0.8 3.7,1.3 -1.9,2.3 -3.8,4.9 -5.3,7.8 -8,-2.3 -17.6,-3.5 -28.7,-3.5 -11.9,0 -22,1.3 -30.4,4"
           inkscape:connector-curvature="0"
           style="fill:#ffed00;fill-rule:nonzero" />
      </g>
      <g
         id="g3295">
        <g
           id="g3297" />
        <g
           id="g3303">
          <g
             id="g3305"
             clip-path="url(#clipPath3299)"
             style="opacity:0.69999701">
            <g
               id="g3307">
              <path
                 id="path3309"
                 d="m 69.426859,410.86876 h -1.8 c -3.5,0.1 -6.7,0.4 -9.7,0.8 h -3 c -4.9,0 -9.5,-0.3 -13.9,-0.7 -4.5,-0.5 -8.8,-1.2 -12.7,-2.1 0.1,0 0.1,0 0.1,-0.1 0.2,-0.1 0.5,-0.3 0.7,-0.4 3.3,-1.5 6.6,-2.9 10,-3.8 10.3,-2.9 20.8,-2.9 31.5,0 2.5,0.7 5,1.6 7.5,2.6 -0.1,-0.1 -0.4,-0.2 -0.6,-0.3 1.5,0.4 2.9,1 4.2,1.9 -3.8,1 -7.9,1.7 -12.3,2.1"
                 inkscape:connector-curvature="0"
                 style="fill:#8eafd8;fill-rule:nonzero" />
            </g>
          </g>
        </g>
      </g>
      <g
         id="g3311">
        <path
           id="path3313"
           d="m 89.026957,389.96886 h 0.1 z"
           inkscape:connector-curvature="0"
           style="fill:#ffed00;fill-rule:nonzero" />
      </g>
      <g
         id="g3315">
        <path
           id="path3317"
           d="m 95.227152,387.16856 c -0.1,-0.1 -0.2,-0.2 -0.3,-0.3 -1.9,-1.4 -4.5,-2.7 -7.9,-3.9 3.6,-1.7 6.7,-3 9.6,-4 0.9,1 1.3,2.2 1.3,3.4 v 0.5 c -0.2,1.5 -1,3 -2.7,4.3"
           inkscape:connector-curvature="0"
           style="fill:#ffed00;fill-rule:nonzero" />
      </g>
      <g
         id="g3319">
        <g
           id="g3321" />
        <g
           id="g3327">
          <g
             id="g3329"
             clip-path="url(#clipPath3323)"
             style="opacity:0.69999701">
            <g
               id="g3331">
              <path
                 id="path3333"
                 d="m 69.426859,410.86876 c 4.4,-0.4 8.5,-1.1 12.3,-2.1 1.8,1.1 3.7,2.4 5.7,3.6 -6.4,-0.9 -12.4,-1.4 -18,-1.5"
                 inkscape:connector-curvature="0"
                 style="fill:#bacbe6;fill-rule:nonzero" />
            </g>
          </g>
        </g>
      </g>
      <g
         id="g3175">
        <g
           id="g3177" />
        <g
           id="g3183">
          <g
             id="g3185"
             clip-path="url(#clipPath3179)"
             style="opacity:0.69999701">
            <g
               id="g3187">
              <path
                 id="path3189"
                 d="m 107.32725,502.96886 c 0.1,0 0.2,0 0.3,0.1 h 0.5 c 0.3,-0.1 0.5,-0.1 0.5,-0.2 h 2.3 c 2,0.2 3.8,0.3 5.3,0.7 h 0.2 0.1 c -2.8,4.2 -6.1,8.2 -9.9,12.09999 -14.2,14.20001 -31.5,21.4 -51.6,21.4 -20.1,0 -37.4,-7.2 -51.6,-21.4 -3.8,-3.89999 -7.2,-7.89999 -9.9,-12.1 1.1,-0.4 2.1,-0.5 2.9,-0.4 h 0.5 c 0.2,-0.1 0.5,-0.1 0.7,-0.1 h 2.6 c 0.1,-0.1 0.2,-0.1 0.3,-0.1 1.3,0.2 2.5,0.3 3.6,0.5 0.1,0.2 0.4,0.4 0.5,0.7 7.5,9.6 13.8,15.7 19,18.3 -3.2,-5.6 -6,-11.1 -8.1,-16.5 1.2,0.3 2.1,0.6 2.7,0.7 2.9,1 6.2,2.5 9.9,4.3 0.4,0.1 1.8,1.1 4.1,2.8 0,-0.2 0,-0.5 -0.1,-0.7 v -0.9 h -0.1 c -0.2,-0.6 -0.5,-1.4 -1,-2.2 -0.6,-0.9 -1,-1.7 -1.3,-2 -1.1,-1.8 -2.9,-4.5 -5.5,-8.3 -1.6,-2.4 -4.2,-5.1 -7.8,-8.2 l -0.2,-0.2 c -0.2,-0.1 -0.6,-0.3 -0.8,-0.5 -1.7,-1.2 -3.4,-2.3 -5.2,-3.2 -0.8,-5 -1.2,-10 -1.2,-15 0.3,-0.1 0.6,-0.2 0.9,-0.4 1.8,-0.8 6.2,-2.5 13,-5.3 1.8,-0.7 3.3,-1.5 4.6,-2.2 0.2,0 0.5,-0.1 0.7,-0.2 1,-0.6 2.1,-1.2 3.3,-1.8 1.7,-1 3.6,-2.5 5.5,-4.4 l 0.1,-0.1 h -0.6 -1 -10.5 l -1.5,-0.2 h -4 c -3.2,-0.1 -6.1,-0.4 -8.8,-0.8 0.9,-3.9 2,-7.8 3.5,-11.8 7.6,-19.5 21.9,-30.7 42.9,-33.6 0.3,-0.1 0.5,-0.1 0.8,-0.1 3,-0.4 6.2,-0.7 9.7,-0.8 h 1.8 c 5.6,0.1 11.6,0.6 18,1.5 -2,-1.2 -3.9,-2.5 -5.7,-3.6 1.2,-0.3 2.4,-0.6 3.5,-1 4.6,-1.4 7.9,-3 10,-4.8 0.8,0.5 1.6,1.1 2.4,1.7 3.1,2.2 6.1,4.8 9,7.7 10.5,10.5 17,22.5 19.9,36.1 -2,1 -4.4,2.1 -7,3.4 -0.6,0.3 -1.3,0.6 -2.1,1 -1.2,0.3 -2.4,0.8 -3.8,1.2 -2.6,0.7 -5.7,1.4 -9.1,2 0,0.1 -0.1,0.1 -0.3,0.1 -0.5,0.2 -1.6,0.5 -3.4,0.9 h -2.4 c -3.1,0.5 -6.4,0.8 -10.1,0.9 h -4 l -1.5,0.2 h -10.5 -1.1 -0.6 l 0.1,0.1 c 2,1.9 3.9,3.4 5.6,4.4 1.2,0.6 2.2,1.2 3.3,1.8 0.2,0.1 0.5,0.2 0.7,0.2 1.3,0.7 2.8,1.5 4.6,2.2 6.7,2.8 11.1,4.5 13,5.3 3,1.4 7,2.8 12,4.4 4.3,1.1 7.2,1.8 8.6,2.1 0.5,0.1 0.9,0.2 1.2,0.3 -0.1,0 -0.2,0 -0.3,0.1 -2.8,0.8 -4.9,1.6 -6.3,2.2 -0.7,0.3 -1.5,0.5 -2.2,0.8 -3.6,1.2 -7.2,2.7 -10.8,4.2 -2.7,1.3 -5.3,2.8 -7.7,4.5 -0.3,0.2 -0.6,0.4 -0.9,0.5 l -0.1,0.2 c -3.6,3.1 -6.2,5.8 -7.8,8.2 -2.6,3.8 -4.5,6.5 -5.5,8.3 -0.3,0.3 -0.7,1.1 -1.3,2 -0.5,0.8 -0.8,1.6 -1.1,2.2 0,0.3 -0.1,0.6 -0.1,0.9 0,0.2 0,0.5 -0.1,0.7 2.4,-1.7 3.8,-2.7 4.1,-2.8 3.8,-1.8 7.1,-3.3 10,-4.3 1.4,-0.5 5.3,-1.5 11.5,-2.9 1.5,-0.2 3.6,-0.5 6.2,-0.8"
                 inkscape:connector-curvature="0"
                 style="fill:#e3eff8;fill-rule:nonzero" />
            </g>
          </g>
        </g>
      </g>
      <g
         id="g3335">
        <path
           id="path3337"
           d="m 142.62705,478.46886 h 1.1 l -0.1,0.1 c -0.3,0 -0.6,0 -1,-0.1"
           inkscape:connector-curvature="0"
           style="fill:#678c5d;fill-rule:nonzero" />
      </g>
      <g
         id="g3339">
        <path
           id="path3341"
           d="m -46.67275,512.06895 c -0.5,0.1 -0.9,0.1 -1.3,0.2 0.5,-0.1 1,-0.2 1.4,-0.3 l 0.2,-0.1 c 0,0.1 -0.1,0.1 -0.1,0.1 -0.1,0.1 -0.1,0.1 -0.2,0.1"
           inkscape:connector-curvature="0"
           style="fill:#59a056;fill-rule:nonzero" />
      </g>
      <g
         id="g3343">
        <path
           id="path3345"
           d="m -35.872946,478.46886 h 1 c -0.3,0.1 -0.6,0.1 -1,0.1 z"
           inkscape:connector-curvature="0"
           style="fill:#678c5d;fill-rule:nonzero" />
      </g>
    </g>
    <g
       style="fill:none;fill-rule:evenodd"
       transform="matrix(0.38823731,0,0,0.38823731,125.98699,179.61525)"
       id="g1305">
      <path
         style="fill-rule:nonzero;stroke:url(#a);stroke-width:0.5;stroke-dasharray:6"
         inkscape:connector-curvature="0"
         d="M 195.5,300 C 250.452,300 295,255.228 295,200 295,144.772 250.452,100 195.5,100 140.548,100 96,144.772 96,200 c 0,55.228 44.548,100 99.5,100 z"
         id="path1193" />
      <circle
         style="fill-rule:nonzero;stroke:url(#b);stroke-width:20"
         cx="194.5"
         cy="199.5"
         r="154.5"
         id="circle1195" />
      <path
         style="fill-rule:nonzero;stroke:url(#c);stroke-width:0.5;stroke-dasharray:3"
         inkscape:connector-curvature="0"
         d="M 195,395 C 302.696,395 390,307.696 390,200 390,92.304 302.696,5 195,5 87.304,5 0,92.304 0,200 0,307.696 87.304,395 195,395 Z"
         id="path1197" />
      <g
         style="fill-rule:nonzero"
         transform="translate(131,136)"
         id="g1203">
        <use
           height="100%"
           width="100%"
           y="0"
           x="0"
           style="fill:#000000;filter:url(#d)"
           xlink:href="#e"
           id="use1199" />
        <use
           height="100%"
           width="100%"
           y="0"
           x="0"
           style="fill:#ffffff"
           xlink:href="#e"
           id="use1201" />
      </g>
      <g
         transform="matrix(-1,0,0,1,194.554,186.54)"
         id="g1210">
        <mask
           id="g"
           fill="#fff">
          <use
             height="100%"
             width="100%"
             y="0"
             x="0"
             xlink:href="#f"
             id="use1205" />
        </mask>
        <path
           style="fill:#00cc99"
           inkscape:connector-curvature="0"
           d="m 27.335,0.63 -6.042,3.473 a 6.9,6.9 0 0 1 0.32,2.046 v 17.406 a 7.188,7.188 0 0 1 -3.612,6.22 L 2.766,38.5 c -0.697,0.4 -1.45,0.653 -2.22,0.794 v 6.928 a 8.726,8.726 0 0 0 3.06,-1.043 L 23.392,33.845 A 8.89,8.89 0 0 0 27.86,26.154 V 3.55 c 0,-0.995 -0.182,-1.971 -0.525,-2.92"
           mask="url(#g)"
           id="path1208" />
      </g>
      <path
         style="fill:#00cc99"
         inkscape:connector-curvature="0"
         d="m 198.978,225.036 15.172,-8.72 a 7.185,7.185 0 0 0 3.604,-6.215 v -17.418 c 0,-0.686 -0.112,-1.352 -0.303,-1.993 l 6.047,-3.474 c 0.327,0.935 0.502,1.895 0.502,2.865 v 22.622 a 8.886,8.886 0 0 1 -4.457,7.685 l -19.704,11.326 c -0.934,0.536 -1.96,0.879 -3.053,1.045 v -6.931 a 7,7 0 0 0 2.192,-0.792"
         id="path1212" />
      <path
         style="fill:#00a375"
         inkscape:connector-curvature="0"
         d="m 194.009,207.493 v 18.341 a 6.98,6.98 0 0 1 -2.22,-0.793 l -15.235,-8.727 a 7.187,7.187 0 0 1 -3.613,-6.22 V 192.69 a 6.9,6.9 0 0 1 0.32,-2.048 l 16.56,9.518 c 3.404,2.398 4.14,4.668 4.188,7.333 m 1.389,-5.765 c -0.901,-1.464 -2.243,-2.728 -4.174,-3.938 l -16.666,-9.58 a 7.039,7.039 0 0 1 1.995,-1.74 l 15.235,-8.727 a 7.25,7.25 0 0 1 7.19,0.005 l 15.173,8.72 a 7.033,7.033 0 0 1 2.02,1.78 l -16.59,9.534 c -1.94,1.217 -3.283,2.482 -4.183,3.946"
         id="path1214" />
      <g
         transform="matrix(-1,0,0,1,222.215,169.651)"
         id="g1221">
        <mask
           id="i"
           fill="#fff">
          <use
             height="100%"
             width="100%"
             y="0"
             x="0"
             xlink:href="#h"
             id="use1216" />
        </mask>
        <path
           style="fill:#00cc99"
           inkscape:connector-curvature="0"
           d="m 8.065,16.816 15.172,-8.72 a 7.253,7.253 0 0 1 7.19,-0.003 l 15.236,8.726 a 7.022,7.022 0 0 1 1.995,1.739 L 53.691,15.09 A 8.722,8.722 0 0 0 51.054,12.748 L 31.268,1.415 A 8.968,8.968 0 0 0 22.377,1.42 L 2.673,12.744 a 8.832,8.832 0 0 0 -2.66,2.387 l 6.03,3.465 a 7.05,7.05 0 0 1 2.022,-1.78"
           mask="url(#i)"
           id="path1219" />
      </g>
      <path
         style="fill:#00a375"
         inkscape:connector-curvature="0"
         d="m 201,200.142 16.451,-9.452 c 0.191,0.64 0.303,1.307 0.303,1.992 v 17.42 a 7.186,7.186 0 0 1 -3.604,6.214 l -15.172,8.72 a 6.986,6.986 0 0 1 -2.192,0.791 v -18.34 c 0.049,-2.66 0.783,-4.93 4.215,-7.345"
         id="path1223" />
      <g
         style="fill-rule:nonzero"
         transform="matrix(-1,0,0,1,659,0)"
         id="g1229">
        <use
           height="100%"
           width="100%"
           y="0"
           x="0"
           style="fill:#000000;filter:url(#j)"
           xlink:href="#k"
           id="use1225" />
        <use
           height="100%"
           width="100%"
           y="0"
           x="0"
           style="fill:#28cdfb;stroke:#ffffff;stroke-width:2"
           xlink:href="#k"
           id="use1227" />
      </g>
      <g
         style="fill-rule:nonzero"
         transform="matrix(-1,0,0,1,444,0)"
         id="g1235">
        <use
           height="100%"
           width="100%"
           y="0"
           x="0"
           style="fill:#000000;filter:url(#l)"
           xlink:href="#m"
           id="use1231" />
        <use
           height="100%"
           width="100%"
           y="0"
           x="0"
           style="fill:#ec8b00;stroke:#ffffff;stroke-width:2"
           xlink:href="#m"
           id="use1233" />
      </g>
      <g
         style="fill-rule:nonzero"
         transform="matrix(-1,0,0,1,85,0)"
         id="g1241">
        <use
           height="100%"
           width="100%"
           y="0"
           x="0"
           style="fill:#000000;filter:url(#n)"
           xlink:href="#o"
           id="use1237" />
        <use
           height="100%"
           width="100%"
           y="0"
           x="0"
           style="fill:#ffc600;stroke:#ffffff;stroke-width:2"
           xlink:href="#o"
           id="use1239" />
      </g>
      <g
         style="fill-rule:nonzero"
         transform="matrix(-1,0,0,1,113,322)"
         id="g1247">
        <use
           height="100%"
           width="100%"
           y="0"
           x="0"
           style="fill:#000000;filter:url(#p)"
           xlink:href="#q"
           id="use1243" />
        <use
           height="100%"
           width="100%"
           y="0"
           x="0"
           style="fill:#00a275;stroke:#ffffff;stroke-width:2"
           xlink:href="#q"
           id="use1245" />
      </g>
      <g
         style="fill-rule:nonzero"
         transform="matrix(-1,0,0,1,65,0)"
         id="g1253">
        <use
           height="100%"
           width="100%"
           y="0"
           x="0"
           style="fill:#000000;filter:url(#r)"
           xlink:href="#s"
           id="use1249" />
        <use
           height="100%"
           width="100%"
           y="0"
           x="0"
           style="fill:#ffc600;stroke:#ffffff;stroke-width:2"
           xlink:href="#s"
           id="use1251" />
      </g>
      <g
         style="fill-rule:nonzero"
         transform="matrix(-1,0,0,1,39,0)"
         id="g1259">
        <use
           height="100%"
           width="100%"
           y="0"
           x="0"
           style="fill:#000000;filter:url(#t)"
           xlink:href="#u"
           id="use1255" />
        <use
           height="100%"
           width="100%"
           y="0"
           x="0"
           style="fill:#ffc600;stroke:#ffffff;stroke-width:2"
           xlink:href="#u"
           id="use1257" />
      </g>
      <g
         style="fill-rule:nonzero"
         transform="matrix(-1,0,0,1,120,134)"
         id="g1265">
        <use
           height="100%"
           width="100%"
           y="0"
           x="0"
           style="fill:#000000;filter:url(#v)"
           xlink:href="#w"
           id="use1261" />
        <use
           height="100%"
           width="100%"
           y="0"
           x="0"
           style="fill:#00a275;stroke:#ffffff;stroke-width:2"
           xlink:href="#w"
           id="use1263" />
      </g>
      <g
         style="fill-rule:nonzero"
         id="g1273">
        <g
           transform="matrix(-1,0,0,1,236,287)"
           id="g1271">
          <use
             height="100%"
             width="100%"
             y="0"
             x="0"
             style="fill:#000000;filter:url(#x)"
             xlink:href="#y"
             id="use1267" />
          <use
             height="100%"
             width="100%"
             y="0"
             x="0"
             style="fill:#00a275;stroke:#ffffff;stroke-width:2"
             xlink:href="#y"
             id="use1269" />
        </g>
      </g>
      <g
         style="fill-rule:nonzero"
         transform="matrix(-1,0,0,1,657,0)"
         id="g1279">
        <use
           height="100%"
           width="100%"
           y="0"
           x="0"
           style="fill:#000000;filter:url(#z)"
           xlink:href="#A"
           id="use1275" />
        <use
           height="100%"
           width="100%"
           y="0"
           x="0"
           style="fill:#28cdfb;stroke:#ffffff;stroke-width:2"
           xlink:href="#A"
           id="use1277" />
      </g>
      <g
         style="fill-rule:nonzero"
         transform="matrix(-1,0,0,1,329,0)"
         id="g1285">
        <use
           height="100%"
           width="100%"
           y="0"
           x="0"
           style="fill:#000000;filter:url(#B)"
           xlink:href="#C"
           id="use1281" />
        <use
           height="100%"
           width="100%"
           y="0"
           x="0"
           style="fill:#ec8b00;stroke:#ffffff;stroke-width:2"
           xlink:href="#C"
           id="use1283" />
      </g>
      <g
         style="fill-rule:nonzero"
         transform="matrix(-1,0,0,1,533,0)"
         id="g1291">
        <use
           height="100%"
           width="100%"
           y="0"
           x="0"
           style="fill:#000000;filter:url(#D)"
           xlink:href="#E"
           id="use1287" />
        <use
           height="100%"
           width="100%"
           y="0"
           x="0"
           style="fill:#ec8b00;stroke:#ffffff;stroke-width:2"
           xlink:href="#E"
           id="use1289" />
      </g>
      <g
         style="fill-rule:nonzero"
         transform="matrix(-1,0,0,1,413,0)"
         id="g1297">
        <use
           height="100%"
           width="100%"
           y="0"
           x="0"
           style="fill:#000000;filter:url(#F)"
           xlink:href="#G"
           id="use1293" />
        <use
           height="100%"
           width="100%"
           y="0"
           x="0"
           style="fill:#28cdfb;stroke:#ffffff;stroke-width:2"
           xlink:href="#G"
           id="use1295" />
      </g>
      <g
         style="fill-rule:nonzero"
         transform="matrix(-1,0,0,1,741,0)"
         id="g1303">
        <use
           height="100%"
           width="100%"
           y="0"
           x="0"
           style="fill:#000000;filter:url(#H)"
           xlink:href="#I"
           id="use1299" />
        <use
           height="100%"
           width="100%"
           y="0"
           x="0"
           style="fill:#ec8b00;stroke:#ffffff;stroke-width:2"
           xlink:href="#I"
           id="use1301" />
      </g>
    </g>
  </g>
</svg>
